<?xml version="1.0" standalone="no"?>
<!DOCTYPE svg PUBLIC "-//W3C//DTD SVG 1.1//EN" "http://www.w3.org/Graphics/SVG/1.1/DTD/svg11.dtd" >
<svg>
<metadata>
Created by FontForge 20090914 at Mon Apr  8 11:01:35 2013
 By www-data
Copyright (C) 1993; Type Market Ltd. Moscow, 119136, Box 20; phone:(095)1427712; Created by A.Kustov
</metadata>
<defs>
<font id="Helios" horiz-adv-x="562" >
  <font-face 
    font-family="Helios"
    font-weight="400"
    font-stretch="normal"
    units-per-em="1000"
    panose-1="0 0 0 0 0 0 0 0 0 0"
    ascent="800"
    descent="-200"
    x-height="529"
    cap-height="726"
    bbox="-18 -222 1065 920.003"
    underline-thickness="50"
    underline-position="-75"
    unicode-range="U+0020-U+2122"
  />
<missing-glyph horiz-adv-x="778" 
d="M48 0v778h682v-778h-682zM682 48v682h-586v-682h586z" />
    <glyph glyph-name=".notdef" horiz-adv-x="778" 
d="M48 0v778h682v-778h-682zM682 48v682h-586v-682h586z" />
    <glyph glyph-name="space" unicode=" " horiz-adv-x="280" 
 />
    <glyph glyph-name="exclam" unicode="!" horiz-adv-x="280" 
d="M188 103v-103h-97v103h97zM164 173h-49l-24 313v240h97v-240z" />
    <glyph glyph-name="quotedbl" unicode="&#x22;" horiz-adv-x="359" 
d="M71 468v257h74v-257h-74zM214 468v257h74v-257h-74z" />
    <glyph glyph-name="numbersign" unicode="#" 
d="M392 212l-29 -212h-67l29 212h-126l-29 -212h-67l30 212h-104l9 63h104l19 144h-104l9 63h104l29 212h68l-29 -212h125l29 212h68l-30 -212h105l-10 -63h-104l-20 -144h104l-9 -63h-104zM354 419h-126l-20 -144h127z" />
    <glyph glyph-name="dollar" unicode="$" 
d="M256 413l-0.00195312 231.001c-37.333 0 -66.666 -11.333 -87.999 -34s-32 -50.334 -32 -83.001c0 -33.333 12.333 -60 37 -80c20.667 -16.667 48.334 -28 83.001 -34zM302.998 311.001l-0.000976562 -256.999c42.667 0 76.334 13 101.001 39
c22 23.333 33 52.666 33 87.999c0 28 -7.33301 51.833 -22 71.5s-33.667 33.5 -57 41.5zM507.997 526.002l-85.998 0.00195312c-4 32 -13 56.333 -27 73c-18.667 22 -49.334 37 -92.001 45v-241c84 -24.667 138.333 -46.334 163 -65.001c39.333 -29.333 59 -76 59 -140
c0 -76.667 -26.667 -134.334 -80 -173.001c-40.667 -29.333 -88 -44 -142 -44v-97h-47v97c-68 0 -120.667 17 -158 51c-43.333 39.333 -65 100.333 -65 183h88c0 -54 9.66699 -92.333 29 -115s54.666 -38 105.999 -46v268c-84 19.333 -140.667 46 -170 80
c-26 30 -39 69.667 -39 119c0 54.667 19.833 101.167 59.5 139.5s89.5 57.5 149.5 57.5v64h47v-64c48.667 0 90.667 -11.333 126 -34c52.667 -33.333 79 -86 79 -158z" />
    <glyph glyph-name="percent" unicode="%" horiz-adv-x="897" 
d="M39 531c0 47.333 17 87.666 51 120.999s74.667 50 122 50s87.666 -16.667 120.999 -50s50 -73.666 50 -120.999s-16.667 -88 -50 -122s-73.666 -51 -120.999 -51s-88 16.667 -122 50s-51 74.333 -51 123zM110 531c0 -30.667 9.66504 -55.334 28.998 -74.001
s43.333 -28 72 -28s52.834 9.83301 72.501 29.5s29.5 43.834 29.5 72.501c0 28 -10 51.667 -30 71s-43.667 29 -71 29c-29.333 0 -53.666 -9.66699 -72.999 -29s-29 -43 -29 -71zM513.998 165c0 48 16.833 88.499 50.5 121.499s74.167 49.5 121.5 49.5
c46.667 0 87 -16.667 121 -50s51 -73.666 51 -120.999c0 -48 -16.667 -88.667 -50 -122s-74 -50 -122 -50s-88.667 16.333 -122 49s-50 73.667 -50 123zM583.998 164.999c0 -30 9.83398 -54.5 29.501 -73.5s43.5 -28.5 71.5 -28.5c29.333 0 53.666 10 72.999 30s29 44 29 72
s-9.66699 51.667 -29 71s-43.333 29 -72 29c-28 0 -52 -9.66699 -72 -29s-30 -43 -30 -71zM674.999 709.999l-400 -730h-54l399 730h55z" />
    <glyph glyph-name="ampersand" unicode="&#x26;" horiz-adv-x="673" 
d="M421 143l-164.001 199.999c-45.333 -28.667 -75.666 -52 -90.999 -70c-22 -25.333 -33 -55.666 -33 -90.999c0 -40 16.667 -71.333 50 -94c25.333 -17.333 52 -26 80 -26c65.333 0 118 27 158 81zM287.999 443.999c27.333 18 47.333 34.3359 60 49.0029
c20.667 23.333 31 48.666 31 75.999c0 29.333 -9 50.666 -27 63.999c-14 10.667 -30.667 16 -50 16c-32.667 0 -56 -10 -70 -30c-10 -14 -15 -30.333 -15 -49c0 -20.667 8.33301 -44 25 -70c12 -18.667 27.333 -37.334 46 -56.001zM521.999 157.002l128.999 -157.003h-115
l-68 83c-28 -32 -56 -55.333 -84 -70c-35.333 -18.667 -77.666 -28 -126.999 -28c-78.667 0 -136.667 24.667 -174 74c-26 34.667 -39 73.334 -39 116.001c0 51.333 10.833 93 32.5 125s65.5 66.333 131.5 103c-29.333 36 -48.666 63 -57.999 81
c-12.667 24.667 -19 51.334 -19 80.001c0 44 14.667 81.333 44 112c32 33.333 74.667 50 128 50s94.666 -15.667 123.999 -47c25.333 -27.333 38 -61.666 38 -102.999c0 -44 -15 -83.667 -45 -119c-16.667 -19.333 -45 -43 -85 -71l132 -157
c7.33301 20.667 13 38.167 17 52.5s8 34.5 12 60.5h84c0 -24.667 -5 -53 -15 -85s-24.333 -65.333 -43 -100z" />
    <glyph glyph-name="quotesingle" unicode="'" horiz-adv-x="193" 
d="M60 468v257h73v-257h-73z" />
    <glyph glyph-name="parenleft" unicode="(" horiz-adv-x="336" 
d="M240 741l60.999 -0.000976562c-36.667 -68.667 -61.334 -118 -74.001 -148c-21.333 -50 -37.166 -101.667 -47.499 -155s-15.5 -119.333 -15.5 -198c0 -54.667 5.33301 -104.834 16 -150.501s27.334 -95.167 50.001 -148.5c15.333 -35.333 39.333 -85.333 72 -150h-59
c-59.333 88.667 -101.333 163.667 -126 225c-32 78.667 -48 161.334 -48 248.001c0 86 14.667 168.333 44 247c26.667 70.667 69 147.334 127 230.001z" />
    <glyph glyph-name="parenright" unicode=")" horiz-adv-x="336" 
d="M96 -209l-60.999 0.000976562c36.667 68.667 61.334 118 74.001 148c21.333 50 37.166 101.667 47.499 155s15.5 119.333 15.5 198c0 54.667 -5.33301 104.834 -16 150.501s-27.334 95.167 -50.001 148.5c-15.333 35.333 -39.333 85.333 -72 150h59
c59.333 -88.667 101.333 -163.667 126 -225c32 -78.667 48 -161.334 48 -248.001c0 -86 -14.667 -168.333 -44 -247c-26.667 -70.667 -69 -147.334 -127 -230.001z" />
    <glyph glyph-name="asterisk" unicode="*" horiz-adv-x="393" 
d="M39 597l21 56l106 -39v111h60v-111l106 39l21 -56l-110 -34l68 -93l-49 -34l-66 95l-66 -95l-49 34l68 93z" />
    <glyph glyph-name="plus" unicode="+" horiz-adv-x="590" 
d="M259 292v219h73v-219h219v-73h-219v-219h-73v219h-220v73h220z" />
    <glyph glyph-name="comma" unicode="," horiz-adv-x="280" 
d="M87 0l0.000976562 107.001h106v-99c0 -45.333 -9.33301 -81.5 -28 -108.5s-44.667 -42.833 -78 -47.5v46c19.333 2 33.666 13.667 42.999 35c7.33301 17.333 11 39.666 11 66.999h-54z" />
    <glyph glyph-name="hyphen" unicode="-" horiz-adv-x="590" 
d="M551 219h-512v73h512v-73z" />
    <glyph glyph-name="period" unicode="." horiz-adv-x="280" 
d="M193 108v-108h-106v108h106z" />
    <glyph glyph-name="slash" unicode="/" horiz-adv-x="280" 
d="M298 745l-248 -764h-68l249 764h67z" />
    <glyph glyph-name="zero" unicode="0" 
d="M429 345c0 92 -12 162.5 -36 211.5s-61.333 73.5 -112 73.5c-50 0 -87.167 -24.5 -111.5 -73.5s-36.5 -119.5 -36.5 -211.5s12 -162.5 36 -211.5s61.333 -73.5 112 -73.5c50 0 87.167 24.5 111.5 73.5s36.5 119.5 36.5 211.5zM524 345c0 -96 -15 -175 -45 -237
c-41.333 -85.333 -107.333 -128 -198 -128s-156.667 42.333 -198 127c-30 62 -45 141.333 -45 238c0 96 15 175 45 237c41.333 85.333 107.333 128 198 128s156.667 -42.333 198 -127c30 -62 45 -141.333 45 -238z" />
    <glyph glyph-name="one" unicode="1" horiz-adv-x="561" 
d="M362 711l-0.000976562 -711h-95v504h-165v71c60.667 0 103.334 8 128.001 24c28 18 49 55.333 63 112h69z" />
    <glyph glyph-name="two" unicode="2" 
d="M134 456l-89.0029 -0.000976562c0 100.667 31 172 93 214c40.667 27.333 91.334 41 152.001 41c64 0 117 -19.167 159 -57.5s63 -90.166 63 -155.499c0 -59.333 -19.667 -108.333 -59 -147c-30 -29.333 -93.667 -70.333 -191 -123
c-42.667 -23.333 -76.667 -50.333 -102 -81c-19.333 -23.333 -30.333 -44.333 -33 -63h385v-84h-485c0 76 16 136.333 48 181c34.667 48 98.334 96 191.001 144c54 27.333 90.667 51 110 71c27.333 28 41 63.333 41 106c0 34 -10.333 62.667 -31 86
c-25.333 28.667 -61.666 43 -108.999 43c-58 0 -98.667 -23 -122 -69c-14 -28 -21 -63.333 -21 -106z" />
    <glyph glyph-name="three" unicode="3" 
d="M226 328l-0.00292969 74.001c58.667 0 100.334 5.33301 125.001 16c38 16.667 57 50 57 100c0 28 -8.33301 51.667 -25 71c-23.333 27.333 -58.666 41 -105.999 41c-54.667 0 -93.334 -19 -116.001 -57c-14.667 -24.667 -22 -56.667 -22 -96h-87
c0 64 14.667 115.667 44 155c38.667 52 100.334 78 185.001 78c67.333 0 120.666 -17.333 159.999 -52s59 -79.667 59 -135c0 -41.333 -10.333 -75.666 -31 -102.999c-16.667 -22 -36.667 -36.667 -60 -44c38 -13.333 66.333 -32 85 -56c22 -28 33 -65 33 -111
c0 -64 -19.667 -116.667 -59 -158c-45.333 -47.333 -110.666 -71 -195.999 -71c-25.333 0 -48.5 2.66699 -69.5 8s-41.5 13.333 -61.5 24c-36.667 18.667 -63.5 46.5 -80.5 83.5s-25.5 77.5 -25.5 121.5h91c0 -57.333 15 -99 45 -125c24.667 -21.333 60.334 -32 107.001 -32
c46 0 83.333 12.667 112 38s43 58.666 43 99.999c0 51.333 -18.667 86.666 -56 105.999c-30.667 16 -81 24 -151 24z" />
    <glyph glyph-name="four" unicode="4" 
d="M528 173h-104v-173h-88v173h-310v87l325 451h73v-461h104v-77zM107 250h229v322z" />
    <glyph glyph-name="five" unicode="5" 
d="M179 608l-30 -195.001c18 14 36.333 24.333 55 31c24 8.66699 51.333 13 82 13c62.667 0 116 -19.333 160 -58c48.667 -42.667 73 -99 73 -169c0 -59.333 -15 -110.666 -45 -153.999c-44.667 -64 -115.334 -96 -212.001 -96c-57.333 0 -105 12.667 -143 38
c-49.333 33.333 -78 86 -86 158h92c4.66699 -39.333 20.334 -69 47.001 -89s61 -30 103 -30c44.667 0 80.667 15.667 108 47s41 70 41 116c0 50 -14.667 88.667 -44 116s-67 41 -113 41c-53.333 0 -97 -22.333 -131 -67l-77 4l53 381h368v-87h-301z" />
    <glyph glyph-name="six" unicode="6" 
d="M508 521h-87c-6 34 -18 60 -36 78c-20.667 20.667 -49.334 31 -86.001 31c-60.667 0 -106 -34.333 -136 -103c-21.333 -48.667 -32 -102 -32 -160l2 -2c13.333 24 31.666 43.333 54.999 58c30.667 19.333 68.334 29 113.001 29c54.667 0 102.334 -16 143.001 -48
c52.667 -41.333 79 -100.333 79 -177c0 -70 -20.333 -127.667 -61 -173c-44.667 -49.333 -106.667 -74 -186 -74s-139.666 34 -180.999 102c-37.333 61.333 -56 144 -56 248c0 99.333 17 182 51 248c45.333 88 115.666 132 210.999 132c51.333 0 96 -13.333 134 -40
c48.667 -34 73 -83.667 73 -149zM143 218c0 -42.667 11.667 -78.333 35 -107c27.333 -34 65.333 -51 114 -51c42 0 75.667 15 101 45s38 69.333 38 118c0 38 -10 70.333 -30 97c-26 34.667 -63.667 52 -113 52c-46.667 0 -82.5 -14.5 -107.5 -43.5
s-37.5 -65.833 -37.5 -110.5z" />
    <glyph glyph-name="seven" unicode="7" 
d="M38 608l0.000976562 86.001h490v-77c-30.667 -32.667 -62.334 -73.334 -95.001 -122.001c-43.333 -65.333 -81 -135.333 -113 -210c-40 -94 -67.667 -189 -83 -285h-98c12 95.333 46 201 102 317c54 111.333 116.333 208.333 187 291h-390z" />
    <glyph glyph-name="eight" unicode="8" 
d="M497 527c0 -44.667 -11 -80.334 -33 -107.001c-12.667 -16 -32 -30.333 -58 -43c43.333 -18 74.666 -45 93.999 -81c14.667 -27.333 22 -57.666 22 -90.999c0 -63.333 -19 -115.333 -57 -156c-42.667 -46 -103.667 -69 -183 -69c-69.333 0 -125.666 17.667 -168.999 53
c-49.333 40 -74 97 -74 171c0 42 10.333 77.333 31 106s50.334 50.667 89.001 66c-64 25.333 -96 71.666 -96 138.999c0 48.667 14.333 90.334 43 125.001c38 46.667 95.333 70 172 70c73.333 0 129.666 -20 168.999 -60c33.333 -33.333 50 -74.333 50 -123zM280 333
c-46.667 0 -83.332 -13.668 -109.999 -41.001c-24 -24.667 -36 -54.667 -36 -90c0 -36.667 9.66699 -67.334 29 -92.001c26 -33.333 66.667 -50 122 -50c40 0 71.667 8.33301 95 25c31.333 22.667 47 59.334 47 110.001c0 44.667 -13.833 78.834 -41.5 102.501
s-62.834 35.5 -105.501 35.5zM279.002 409.999c38 0 68.5 10.5 91.5 31.5s34.5 48.5 34.5 82.5c0 26.667 -9 49.667 -27 69c-23.333 24.667 -58.333 37 -105 37c-42.667 0 -74 -12.667 -94 -38c-16 -20 -24 -44.333 -24 -73c0 -32.667 12 -59 36 -79s53.333 -30 88 -30z" />
    <glyph glyph-name="nine" unicode="9" 
d="M266 237c-66.667 0 -120.5 20.499 -161.5 61.499s-61.5 96.833 -61.5 167.5c0 68.667 19 125.334 57 170.001c42 49.333 99 74 171 74c98.667 0 168.334 -40.667 209.001 -122c26 -52.667 39 -122 39 -208c0 -48 -4 -93.667 -12 -137
c-13.333 -73.333 -36.333 -131.666 -69 -174.999c-44 -58.667 -102.667 -88 -176 -88c-74.667 0 -130.667 23 -168 69c-28.667 35.333 -43 75.666 -43 120.999h89c0 -36 10.667 -64.333 32 -85s50.666 -31 87.999 -31c48 0 85.5 21.333 112.5 64s46.167 110 57.5 202l-2 2
c-12.667 -26 -34.167 -46.667 -64.5 -62s-62.833 -23 -97.5 -23zM279 316.999c33.333 0 61.667 9.33398 85 28.001c34 27.333 51 71.666 51 132.999c0 44 -11 79.333 -33 106c-25.333 30.667 -62 46 -110 46c-42 0 -75.333 -14.5 -100 -43.5s-37 -67.833 -37 -116.5
c0 -60 16.333 -102.333 49 -127c23.333 -17.333 55 -26 95 -26z" />
    <glyph glyph-name="colon" unicode=":" horiz-adv-x="280" 
d="M193 107v-107h-106v107h106zM193 522v-107h-106v107h106z" />
    <glyph glyph-name="semicolon" unicode=";" horiz-adv-x="280" 
d="M87 0l0.000976562 107.001h106v-99c0 -45.333 -9.33301 -81.5 -28 -108.5s-44.667 -42.833 -78 -47.5v46c19.333 2 33.666 13.667 42.999 35c7.33301 17.333 11 39.666 11 66.999h-54zM193.001 414.001h-106v107h106v-107z" />
    <glyph glyph-name="less" unicode="&#x3c;" horiz-adv-x="590" 
d="M541 92v-80l-492 209v70l492 209v-80l-393 -164z" />
    <glyph glyph-name="equal" unicode="=" horiz-adv-x="590" 
d="M551 394v-73h-512v73h512zM551 190v-73h-512v73h512z" />
    <glyph glyph-name="greater" unicode="&#x3e;" horiz-adv-x="590" 
d="M49 420v80l492 -209v-70l-492 -209v80l393 164z" />
    <glyph glyph-name="question" unicode="?" 
d="M146 498l-89.001 0.000976562c0 54.667 9.66699 100 29 136c36 67.333 101.333 101 196 101c60 0 110 -16.667 150 -50c43.333 -36.667 65 -86 65 -148c0 -50.667 -19 -94.334 -57 -131.001c-57.333 -56 -95 -99.667 -113 -131
c-5.33301 -9.33301 -8.83301 -20.5 -10.5 -33.5s-2.5 -31.833 -2.5 -56.5h-91c0 64 15.333 117.667 46 161l86 91c31.333 33.333 47 68.666 47 105.999c0 28 -8 52.333 -24 73c-21.333 28 -54 42 -98 42c-55.333 0 -93.666 -21 -114.999 -63
c-12.667 -25.333 -19 -57.666 -19 -96.999zM320.999 103.001v-103h-98v103h98z" />
    <glyph glyph-name="at" unicode="@" horiz-adv-x="1025" 
d="M617 412c0 25.333 -8.16602 47.167 -24.499 65.5s-35.833 27.5 -58.5 27.5c-42.667 0 -79.334 -22.333 -110.001 -67c-28 -40.667 -42 -84 -42 -130c0 -28.667 7.83301 -52.167 23.5 -70.5s36.167 -27.5 61.5 -27.5c40 0 75.667 23.667 107 71
c28.667 43.333 43 87 43 131zM648.001 499.001l21 62.998h68l-71 -250c-13.333 -46.667 -20 -73 -20 -79c0 -20 7.33301 -30 22 -30c34 0 66.333 23 97 69s46 96 46 150c0 78 -27.167 140.833 -81.5 188.5s-121.166 71.5 -200.499 71.5c-88.667 0 -162 -31 -220 -93
s-87 -138.667 -87 -230c0 -90 30 -165 90 -225s134.667 -90 224 -90c46.667 0 92.167 10.333 136.5 31s80.833 48.667 109.5 84h67c-32.667 -54.667 -77.167 -98 -133.5 -130s-116.833 -48 -181.5 -48c-108 0 -199.333 37 -274 111s-112 165 -112 273
c0 105.333 37.333 195 112 269s164.334 111 269.001 111c95.333 0 177.166 -30 245.499 -90s102.5 -135 102.5 -225c0 -84 -29 -155.667 -87 -215c-50 -51.333 -101.667 -77 -155 -77c-18.667 0 -34 5.33301 -46 16s-18 26.334 -18 47.001
c-17.333 -17.333 -37 -32.166 -59 -44.499s-43.667 -18.5 -65 -18.5c-42 0 -77.167 15.833 -105.5 47.5s-42.5 69.5 -42.5 113.5c0 72 21.333 135.667 64 191c45.333 58.667 101.666 88 168.999 88c26 0 48.667 -6.16699 68 -18.5s35.333 -32.5 48 -60.5z" />
    <glyph glyph-name="A" unicode="A" horiz-adv-x="673" 
d="M481 212h-290l-76 -212h-101l273 726h111l262 -726h-107zM221 298h225l-107 320z" />
    <glyph glyph-name="B" unicode="B" horiz-adv-x="673" 
d="M172 642l0.000976562 -223.001h177c50 0 87 8.33301 111 25c26.667 18.667 40 49.334 40 92.001c0 34.667 -11.833 61 -35.5 79s-61.834 27 -114.501 27h-178zM74.001 -0.000976562l-0.000976562 725.998h319c64.667 0 115.667 -18 153 -54
c34.667 -33.333 52 -76.333 52 -129c0 -29.333 -6 -55.666 -18 -78.999c-16.667 -31.333 -43 -55.666 -79 -72.999c38.667 -15.333 66.667 -31.333 84 -48c32 -30.667 48 -73.334 48 -128.001c0 -61.333 -21 -111.666 -63 -150.999
c-45.333 -42.667 -106.666 -64 -183.999 -64h-312zM172 338.997v-255h209c50 0 88.167 11.833 114.5 35.5s39.5 56.167 39.5 97.5c0 46 -18.333 79 -55 99c-28 15.333 -66.333 23 -115 23h-193z" />
    <glyph glyph-name="C" unicode="C" horiz-adv-x="730" 
d="M681 507l-95.001 0.000976562c-12 56.667 -40.333 97.667 -85 123c-33.333 18.667 -72.666 28 -117.999 28c-69.333 0 -125.333 -24 -168 -72c-46 -51.333 -69 -123.333 -69 -216c0 -93.333 17.333 -165 52 -215c40 -58 102.667 -87 188 -87
c43.333 0 81.666 12 114.999 36c46.667 33.333 77.334 87.666 92.001 162.999h95c-12 -82.667 -41 -148 -87 -196c-34 -35.333 -78 -60.666 -132 -75.999c-33.333 -9.33301 -66 -14 -98 -14c-92 0 -167 29.333 -225 88c-67.333 68 -101 167.333 -101 298
c0 113.333 30.333 204.666 91 273.999s143 104 247 104c88 0 159.333 -24.333 214 -73c48.667 -43.333 76.667 -98.333 84 -165z" />
    <glyph glyph-name="D" unicode="D" horiz-adv-x="729" 
d="M82 0v726h294c93.333 0 167.5 -32.5 222.5 -97.5s82.5 -150.167 82.5 -255.5c0 -98 -21.667 -180.333 -65 -247c-54.667 -84 -136 -126 -244 -126h-290zM180 642l-0.000976562 -558h190c64.667 0 115.834 24.5 153.501 73.5s56.5 118.833 56.5 209.5
c0 90 -19.167 158.333 -57.5 205s-91.5 70 -159.5 70h-183z" />
    <glyph glyph-name="E" unicode="E" horiz-adv-x="674" 
d="M623 87v-87h-536v726h529v-87h-431v-222h397v-87h-397v-243h438z" />
    <glyph glyph-name="F" unicode="F" horiz-adv-x="617" 
d="M185 330v-330h-98v726h501v-87h-403v-222h355v-87h-355z" />
    <glyph glyph-name="G" unicode="G" horiz-adv-x="786" 
d="M393 304l0.000976562 84.0029h318v-388h-63l-24 94c-24.667 -34.667 -58.167 -62.167 -100.5 -82.5s-88.5 -30.5 -138.5 -30.5c-55.333 0 -103 9 -143 27c-28 12.667 -54.333 31 -79 55c-48 45.333 -80.667 99.666 -98 162.999c-10.667 39.333 -16 87 -16 143
c0 98.667 27.667 183.334 83 254.001c63.333 81.333 150 122 260 122c74.667 0 140 -19.333 196 -58c64 -44 101 -104.667 111 -182h-95c-14 57.333 -44 98.666 -90 123.999c-34.667 19.333 -77 29 -127 29c-68 0 -123.667 -25 -167 -75c-46.667 -54 -70 -127 -70 -219
c0 -86.667 16 -155 48 -205c40 -62.667 104.333 -94 193 -94c25.333 0 47.666 2.33301 66.999 7c30.667 7.33301 58 20.666 82 39.999c29.333 23.333 50.333 52 63 86c10.667 29.333 16 64.666 16 105.999h-226z" />
    <glyph glyph-name="H" unicode="H" horiz-adv-x="730" 
d="M555 426v300h98v-726h-98v339h-379v-339h-98v726h98v-300h379z" />
    <glyph glyph-name="I" unicode="I" horiz-adv-x="280" 
d="M190 726v-726h-98v726h98z" />
    <glyph glyph-name="J" unicode="J" horiz-adv-x="505" 
d="M17 233l91.999 -0.000976562v-51c0 -41.333 9.33301 -71.333 28 -90s45.667 -28 81 -28c42.667 0 73.334 12 92.001 36c16 20.667 24 50.334 24 89.001v536h98v-530c0 -77.333 -22.333 -134.333 -67 -171c-36 -29.333 -83.333 -44 -142 -44
c-74.667 0 -130 21.667 -166 65c-26.667 32 -40 70.667 -40 116v72z" />
    <glyph glyph-name="K" unicode="K" horiz-adv-x="674" 
d="M175 255v-255h-98v726h98v-352l352 352h135l-302 -293l310 -433h-127l-254 364z" />
    <glyph glyph-name="L" unicode="L" horiz-adv-x="561" 
d="M175 726v-639h367v-87h-465v726h98z" />
    <glyph glyph-name="M" unicode="M" horiz-adv-x="841" 
d="M768 0h-95v429l3 181l-206 -610h-97l-204 610v-181v-429h-95v726h140l206 -614l209 614h139v-726z" />
    <glyph glyph-name="N" unicode="N" horiz-adv-x="730" 
d="M558 726h95v-726h-110l-369 586l-2 -586h-95v726h116l363 -586z" />
    <glyph glyph-name="O" unicode="O" horiz-adv-x="786" 
d="M646 363c0 87.333 -22.667 158.333 -68 213s-107 82 -185 82s-139.667 -27.333 -185 -82s-68 -125.667 -68 -213s22.667 -158.333 68 -213s107 -82 185 -82s139.667 27.333 185 82s68 125.667 68 213zM746 363c0 -97.333 -24.667 -180.666 -74 -249.999
c-62.667 -88 -155.667 -132 -279 -132c-122 0 -214.667 44 -278 132c-50 70 -75 153.333 -75 250c0 97.333 24.667 180.666 74 249.999c62.667 88 155.667 132 279 132c122 0 214.667 -44 278 -132c50 -70 75 -153.333 75 -250z" />
    <glyph glyph-name="P" unicode="P" horiz-adv-x="674" 
d="M185 642v-251.999h195c47.333 0 83 9.33301 107 28c27.333 21.333 41 55.666 41 102.999c0 42.667 -13 73.5 -39 92.5s-61 28.5 -105 28.5h-199zM185 306.001v-306h-98v726h327c66 0 118.333 -19 157 -57s58 -87 58 -147c0 -58 -16 -106.667 -48 -146
c-38 -46.667 -93.667 -70 -167 -70h-229z" />
    <glyph glyph-name="Q" unicode="Q" horiz-adv-x="786" 
d="M424 149l48.999 61l93 -72c26 26 45.667 58 59 96s20 81 20 129c0 87.333 -22.667 158.333 -68 213s-106.666 82 -183.999 82c-78 0 -139.667 -27.333 -185 -82s-68 -126 -68 -214c0 -87.333 22.667 -158.333 68 -213s107 -82 185 -82c39.333 0 75 7.66699 107 23z
M739.999 2l-49 -58.999l-111 86c-24 -14.667 -52 -26.334 -84 -35.001s-66.667 -13 -104 -13c-122 0 -214.667 44 -278 132c-50 69.333 -75 152.333 -75 249c0 97.333 25 181 75 251c63.333 88 156.333 132 279 132c122 0 214.667 -44 278 -132c50 -70 75 -153.667 75 -251
c0 -52 -7.66699 -101 -23 -147c-18 -54 -45.333 -99.667 -82 -137z" />
    <glyph glyph-name="R" unicode="R" horiz-adv-x="730" 
d="M187 311l0.000976562 -310.997h-98v726h335c68.667 0 123.334 -13.333 164.001 -40c50 -32.667 75 -84.334 75 -155.001c0 -48 -11 -87 -33 -117c-14.667 -20 -37.334 -39 -68.001 -57c42 -28 65.333 -45.667 70 -53c13.333 -20.667 20 -48.334 20 -83.001v-132
c0 -20 2.66699 -34.833 8 -44.5s15.666 -18.834 30.999 -27.501v-17h-120c-6 20 -10.333 48.5 -13 85.5s-4 69.167 -4 96.5c0 39.333 -6.66699 68.333 -20 87c-20 28 -56.667 42 -110 42h-237zM187.001 642.003l-0.000976562 -247h227c44.667 0 78.334 7.33301 101.001 22
c31.333 20 47 54.667 47 104c0 48.667 -15.333 82.667 -46 102c-20.667 12.667 -48.667 19 -84 19h-245z" />
    <glyph glyph-name="S" unicode="S" horiz-adv-x="673" 
d="M323 745c110.667 0 189.334 -28.6689 236.001 -86.002c31.333 -38.667 47 -87.334 47 -146.001h-92c0 51.333 -19.667 90 -59 116c-32.667 21.333 -72.667 32 -120 32c-42.667 0 -78 -7.33301 -106 -22c-40.667 -21.333 -61 -56.333 -61 -105
c0 -31.333 11 -53.666 33 -66.999s71.333 -29 148 -47c111.333 -25.333 185.333 -52.666 222 -81.999s55 -75.333 55 -138c0 -77.333 -31.667 -135 -95 -173c-50.667 -30.667 -113.667 -46 -189 -46c-108.667 0 -187.667 29 -237 87c-37.333 44 -56 99.667 -56 167h92
c0 -60 21.667 -104.667 65 -134c35.333 -24 80 -36 134 -36c65.333 0 115 12.333 149 37c28 20.667 42 49 42 85c0 40.667 -12.333 69 -37 85c-30.667 20 -101.667 42 -213 66c-70.667 14.667 -121.334 34 -152.001 58c-37.333 28.667 -56 70.334 -56 125.001
c0 62 19.667 113.333 59 154c45.333 46.667 109 70 191 70z" />
    <glyph glyph-name="T" unicode="T" horiz-adv-x="617" 
d="M14 639v87h589v-87h-246v-639h-97v639h-246z" />
    <glyph glyph-name="U" unicode="U" horiz-adv-x="729" 
d="M553 726l98.001 0.000976562v-471c0 -78.667 -23.667 -142.667 -71 -192c-52.667 -54.667 -126.334 -82 -221.001 -82c-92 0 -162.667 26.333 -212 79c-44.667 47.333 -67 107.666 -67 180.999v485h98v-458c0 -71.333 20 -124.333 60 -159c32.667 -28 74.667 -42 126 -42
c53.333 0 96 13.333 128 40c40.667 34 61 87 61 159v460z" />
    <glyph glyph-name="V" unicode="V" horiz-adv-x="673" 
d="M543 726h110l-264 -726h-105l-264 726h109l207 -619z" />
    <glyph glyph-name="W" unicode="W" horiz-adv-x="954" 
d="M308 0h-103l-189 726h106l136 -590l164 590h108l162 -590l137 590h109l-191 -726h-103l-166 601z" />
    <glyph glyph-name="X" unicode="X" horiz-adv-x="673" 
d="M400 372l254 -372h-121l-195 298l-201 -298h-118l259 372l-243 354h123l184 -278l184 278h117z" />
    <glyph glyph-name="Y" unicode="Y" horiz-adv-x="673" 
d="M385 292v-292h-97v292l-274 434h114l208 -349l208 349h115z" />
    <glyph glyph-name="Z" unicode="Z" horiz-adv-x="617" 
d="M594 87v-87h-571v82l445 557h-411v87h537v-85l-447 -554h447z" />
    <glyph glyph-name="bracketleft" unicode="[" horiz-adv-x="281" 
d="M144 658v-784h109v-72h-189v928h189v-72h-109z" />
    <glyph glyph-name="backslash" unicode="\" horiz-adv-x="280" 
d="M230 -19l-248 764h67l249 -764h-68z" />
    <glyph glyph-name="bracketright" unicode="]" horiz-adv-x="281" 
d="M137 -126v784h-109v72h189v-928h-189v72h109z" />
    <glyph glyph-name="asciicircum" unicode="^" horiz-adv-x="473" 
d="M487 267h-77l-173 347l-173 -347h-78l215 428h72z" />
    <glyph glyph-name="underscore" unicode="_" 
d="M562 -126h-562v50h562v-50z" />
    <glyph glyph-name="grave" unicode="`" horiz-adv-x="336" 
d="M145 599l-131 143h109l90 -143h-68z" />
    <glyph glyph-name="a" unicode="a" 
d="M145 368h-81.999c0 60.667 19.333 105.167 58 133.5s92 42.5 160 42.5c42 0 79.667 -7.66699 113 -23c55.333 -25.333 83 -67 83 -125v-302c0 -22 9.66699 -33 29 -33l29 4v-65l-26 -7c-7.33301 -2 -14.666 -3 -21.999 -3c-35.333 0 -60.333 8.33301 -75 25
c-10 11.333 -16.333 30 -19 56c-30.667 -32.667 -61.334 -55.167 -92.001 -67.5s-63.667 -18.5 -99 -18.5c-48.667 0 -88.334 14 -119.001 42s-46 65 -46 111c0 45.333 10.333 81.333 31 108c32.667 41.333 89.667 62 171 62c66 0 107.333 5.16699 124 15.5
s25 30.833 25 61.5c0 56.667 -41 85 -123 85c-44 0 -76 -12 -96 -36c-12.667 -15.333 -20.667 -37.333 -24 -66zM388.001 183l-0.000976562 87c-7.33301 -6 -21.166 -11.5 -41.499 -16.5s-50.833 -10.167 -91.5 -15.5s-69.334 -12.333 -86.001 -21
c-26.667 -14.667 -40 -36.667 -40 -66c0 -30 7.83301 -52.833 23.5 -68.5s39.834 -23.5 72.501 -23.5c43.333 0 81.333 11.833 114 35.5s49 53.167 49 88.5z" />
    <glyph glyph-name="b" unicode="b" 
d="M142 0l-83.002 0.000976562v726h89v-262c19.333 27.333 41.833 47.5 67.5 60.5s54.834 19.5 87.501 19.5c68 0 121.667 -24.833 161 -74.5s59 -112.834 59 -189.501c0 -77.333 -16 -142 -48 -194c-41.333 -67.333 -102.666 -101 -183.999 -101
c-40 0 -73.333 9.66699 -100 29c-16 12 -31.667 29.333 -47 52zM285.998 464.001c-51.333 0 -88.666 -24.667 -111.999 -74c-17.333 -37.333 -26 -87.333 -26 -150s16 -109.667 48 -141c25.333 -24.667 56 -37 92 -37c46.667 0 82.667 19.667 108 59
c23.333 36 35 84.333 35 145c0 54 -6.66699 95.333 -20 124c-22.667 49.333 -64.334 74 -125.001 74z" />
    <glyph glyph-name="c" unicode="c" horiz-adv-x="505" 
d="M482 351l-85.999 -0.000976562c-6 36.667 -19.167 64.667 -39.5 84s-48.833 29 -85.5 29c-50.667 0 -88.667 -21.333 -114 -64c-20.667 -34.667 -31 -79.667 -31 -135c0 -57.333 8.66699 -102.666 26 -135.999c23.333 -44.667 62.666 -67 117.999 -67
c30.667 0 57.5 10.833 80.5 32.5s38.167 52.5 45.5 92.5h86c-6 -53.333 -23.333 -97.333 -52 -132c-38.667 -46.667 -93 -70 -163 -70c-72.667 0 -130.167 24.667 -172.5 74s-63.5 113 -63.5 191c0 86.667 20.333 156 61 208c44.667 57.333 108.667 86 192 86
c64.667 0 115 -20.667 151 -62c31.333 -36 47 -79.667 47 -131z" />
    <glyph glyph-name="d" unicode="d" 
d="M504 726l0.00195312 -725.998h-84v73c-18.667 -32.667 -42.667 -56.334 -72 -71.001c-22.667 -11.333 -49.334 -17 -80.001 -17c-81.333 0 -142.333 33.333 -183 100c-32.667 53.333 -49 118.333 -49 195c0 77.333 19.5 140.666 58.5 189.999s92.833 74 161.5 74
c42 0 77.667 -11 107 -33c13.333 -10 30.666 -29 51.999 -57v272h89zM272.002 464.002c-60 0 -101.001 -23.999 -123.001 -71.999c-14 -30 -21 -72 -21 -126c0 -60.667 11.833 -109.834 35.5 -147.501s58.834 -56.5 105.501 -56.5c36.667 0 68 12 94 36
c34.667 32 52 79.333 52 142c0 60 -8 108 -24 144c-23.333 53.333 -63 80 -119 80z" />
    <glyph glyph-name="e" unicode="e" 
d="M425 166l89.001 -0.000976562c-12.667 -51.333 -34.334 -91.666 -65.001 -120.999c-42 -40 -99.667 -60 -173 -60c-72.667 0 -130 24.667 -172 74s-63 113 -63 191c0 88 20 157.667 60 209c44 56.667 108.333 85 193 85c74 0 130.333 -27.5 169 -82.5
s58 -130.5 58 -226.5h-385c0 -55.333 13 -98 39 -128s64 -45 114 -45c38.667 0 71.667 12.333 99 37c24.667 22 37 44.333 37 67zM136.001 305.999h294c0 46 -11 82.667 -33 110c-25.333 32 -64 48 -116 48c-40 0 -74.167 -15.833 -102.5 -47.5s-42.5 -68.5 -42.5 -110.5z
" />
    <glyph glyph-name="f" unicode="f" horiz-adv-x="281" 
d="M265 455h-88.999v-455h-89v455h-72v74h72v90c0 40 11.667 69.5 35 88.5s57.333 28.5 102 28.5c7.33301 0 14.166 -0.333008 20.499 -1s12.833 -2 19.5 -4v-77l-35 2c-35.333 0 -53 -20.667 -53 -62v-65h89v-74z" />
    <glyph glyph-name="g" unicode="g" 
d="M133 266c0 -61.333 11.333 -109.667 34 -145c25.333 -39.333 61.333 -59 108 -59c36 0 66.333 12 91 36c32.667 31.333 49 79 49 143c0 63.333 -6.66699 111.333 -20 144c-21.333 52.667 -60.333 79 -117 79c-60 0 -101.333 -24.333 -124 -73
c-14 -30 -21 -71.667 -21 -125zM504 528.999l0.00195312 -484.999c0 -92.667 -20.5 -160.167 -61.5 -202.5s-102.5 -63.5 -184.5 -63.5c-46 0 -85 8.66699 -117 26c-48.667 26.667 -76.667 70.667 -84 132h89c6.66699 -33.333 25.667 -57 57 -71
c19.333 -8.66699 40 -13 62 -13c67.333 0 111.666 24 132.999 72c11.333 25.333 17 70.666 17 135.999c-14 -22.667 -32.833 -40.834 -56.5 -54.501s-52.5 -20.5 -86.5 -20.5c-80.667 0 -141.334 33.333 -182.001 100c-32.667 53.333 -49 118.333 -49 195
c0 78.667 19.5 142.334 58.5 191.001s93.167 73 162.5 73c42 0 77.667 -11 107 -33c14.667 -11.333 32 -30.333 52 -57v75h83z" />
    <glyph glyph-name="h" unicode="h" 
d="M496 360l-0.000976562 -360h-89v346c0 40 -6.66699 68.667 -20 86c-16 21.333 -44.333 32 -85 32c-42 0 -75.667 -12.333 -101 -37c-30.667 -30 -46 -76.333 -46 -139v-288h-89v726h89v-268c20.667 24.667 39.334 43 56.001 55c30 20.667 63.333 31 100 31
c51.333 0 92.333 -11.667 123 -35c41.333 -31.333 62 -81 62 -149z" />
    <glyph glyph-name="i" unicode="i" horiz-adv-x="224" 
d="M157 529v-529h-89v529h89zM157 625h-89v101h89v-101z" />
    <glyph glyph-name="j" unicode="j" horiz-adv-x="225" 
d="M157 529v-606c0 -36.667 -6 -64.667 -18 -84c-21.333 -34 -60.333 -51 -117 -51l-38 3v77h18c28 0 46 3.5 54 10.5s12 25.167 12 54.5v596h89zM157 726v-101h-89v101h89z" />
    <glyph glyph-name="k" unicode="k" horiz-adv-x="505" 
d="M292 332l214 -332h-114l-165 267l-73 -67v-200h-86v726h86v-421l227 224h113z" />
    <glyph glyph-name="l" unicode="l" horiz-adv-x="224" 
d="M157 726v-726h-89v726h89z" />
    <glyph glyph-name="m" unicode="m" horiz-adv-x="841" 
d="M66 0l0.000976562 529h83v-75c18 24 35.667 42.333 53 55c32 23.333 68.333 35 109 35c41.333 0 74.666 -10.667 99.999 -32c14.667 -12.667 28 -30.667 40 -54c27.333 29.333 49.666 49.666 66.999 60.999c26.667 16.667 58 25 94 25c40.667 0 75.334 -11 104.001 -33
c40.667 -30.667 61 -79 61 -145v-366h-89v342c0 38.667 -7 68 -21 88c-16 22.667 -42 34 -78 34s-65.5 -14.167 -88.5 -42.5s-34.5 -61.166 -34.5 -98.499v-323h-89v366c0 26 -5.66699 47.667 -17 65c-14.667 22 -37 33 -67 33c-34 0 -63 -11 -87 -33
c-34 -30.667 -51 -77.667 -51 -141v-290h-89z" />
    <glyph glyph-name="n" unicode="n" 
d="M496 360v-360h-89v326c0 48 -7.66699 82.333 -23 103c-17.333 23.333 -47.333 35 -90 35c-34 0 -63.333 -11.333 -88 -34c-34 -31.333 -51 -78.666 -51 -141.999v-288h-89v529h84v-75c17.333 23.333 35.333 41.666 54 54.999c32 23.333 67.667 35 107 35
c51.333 0 92.333 -11.667 123 -35c41.333 -31.333 62 -81 62 -149z" />
    <glyph glyph-name="o" unicode="o" 
d="M36 265c0 74.667 19.667 138 59 190c44.667 59.333 106.667 89 186 89s141.333 -29.333 186 -88c39.333 -51.333 59 -115 59 -191c0 -74.667 -19.667 -138 -59 -190c-44.667 -59.333 -106.667 -89 -186 -89s-141.333 29.333 -186 88c-39.333 51.333 -59 115 -59 191z
M127 265c0 -48.667 9.66699 -91 29 -127c27.333 -50 69 -75 125 -75s97.333 24.667 124 74c20 36.667 30 79.334 30 128.001s-9.66699 91 -29 127c-27.333 50 -69 75 -125 75s-97.333 -24.667 -124 -74c-20 -36.667 -30 -79.334 -30 -128.001z" />
    <glyph glyph-name="p" unicode="p" 
d="M148 241c0 -63.333 16 -110.667 48 -142c25.333 -24.667 56 -37 92 -37c46.667 0 82.667 19.333 108 58c23.333 36 35 84.667 35 146c0 52.667 -7 94 -21 124c-22.667 49.333 -64 74 -124 74c-56.667 0 -95.667 -26.333 -117 -79c-14 -34.667 -21 -82.667 -21 -144z
M59 -209.001l-0.000976562 737.999h83v-75c24 28.667 41.667 47.334 53 56.001c30 22.667 65.667 34 107 34c68.667 0 122.667 -24.5 162 -73.5s59 -112.5 59 -190.5c0 -77.333 -16 -142 -48 -194c-41.333 -67.333 -102.666 -101 -183.999 -101
c-34 0 -62.833 6.83301 -86.5 20.5s-42.5 32.5 -56.5 56.5v-271h-89z" />
    <glyph glyph-name="q" unicode="q" 
d="M499 529l-0.000976562 -737.999h-89v265c-14.667 -20.667 -32.667 -37 -54 -49c-26 -14.667 -55.333 -22 -88 -22c-81.333 0 -142.666 33.333 -183.999 100c-32.667 53.333 -49 118.666 -49 195.999c0 76.667 19.5 139.667 58.5 189s92.833 74 161.5 74
c42 0 77.667 -11 107 -33c17.333 -12.667 34.333 -31.667 51 -57l2 75h84zM409.999 241.001c0 61.333 -7 109.001 -21 143.001c-22 53.333 -61.333 80 -118 80c-59.333 0 -100.333 -24.333 -123 -73c-14 -30.667 -21 -72.334 -21 -125.001
c0 -61.333 11.333 -109.666 34 -144.999c25.333 -39.333 61.333 -59 108 -59c36 0 66.667 12.333 92 37c32.667 31.333 49 78.666 49 141.999z" />
    <glyph glyph-name="r" unicode="r" horiz-adv-x="336" 
d="M167 307l0.000976562 -307.001h-89v529h83v-88c19.333 32.667 40.666 57.334 63.999 74.001c26 19.333 55 29 87 29c8 0 16 -1 24 -3v-92h-35c-40 0 -72.333 -13.667 -97 -41s-37 -61 -37 -101z" />
    <glyph glyph-name="s" unicode="s" horiz-adv-x="505" 
d="M451 378l-85.999 -0.000976562c0 24 -6.66699 43 -20 57c-20 21.333 -55 32 -105 32c-24 0 -44.667 -4 -62 -12c-28.667 -13.333 -43 -34.333 -43 -63c0 -20.667 8.83301 -36 26.5 -46s55.834 -22 114.501 -36c75.333 -18 126.166 -38 152.499 -60s39.5 -52 39.5 -90
c0 -53.333 -19.667 -95.833 -59 -127.5s-89.333 -47.5 -150 -47.5c-92 0 -156 22.667 -192 68c-23.333 29.333 -35 68.333 -35 117h86c0 -28.667 7.33301 -51.334 22 -68.001c23.333 -26.667 62.666 -40 117.999 -40c34.667 0 62.667 6.33301 84 19
c24.667 14.667 37 36.334 37 65.001c0 22 -10.667 39.333 -32 52s-62.666 24.834 -123.999 36.501s-105 27.5 -131 47.5c-28.667 22 -43 53 -43 93c0 54 20.333 96.333 61 127c37.333 28 83.666 42 138.999 42c63.333 0 112.833 -15.5 148.5 -46.5s53.5 -70.833 53.5 -119.5
z" />
    <glyph glyph-name="t" unicode="t" horiz-adv-x="281" 
d="M260 454l-84.999 0.000976562v-343c0 -12.667 4.33301 -22.834 13 -30.501s22 -11.5 40 -11.5h31v-69l-66 -8c-40.667 0 -69.334 11 -86.001 33c-14 18 -21 45 -21 81v348h-71v74h71v147h89v-147h85v-74z" />
    <glyph glyph-name="u" unicode="u" 
d="M494 0h-83.998v77c-20.667 -31.333 -43.834 -54.5 -69.501 -69.5s-58.834 -22.5 -99.501 -22.5c-46.667 0 -85 11.333 -115 34c-38 28.667 -57 72 -57 130v380h89v-351c0 -40.667 9.66699 -70.667 29 -90c17.333 -17.333 41.333 -26 72 -26c50.667 0 89 19.667 115 59
c20.667 31.333 31 70.333 31 117v291h89v-529z" />
    <glyph glyph-name="v" unicode="v" horiz-adv-x="504" 
d="M399 529h97l-201 -529h-95l-192 529h103l137 -431z" />
    <glyph glyph-name="w" unicode="w" horiz-adv-x="730" 
d="M259 0h-92l-152 529h96l101 -415l105 415h99l103 -415l109 415h88l-153 -529h-92l-107 409z" />
    <glyph glyph-name="x" unicode="x" horiz-adv-x="504" 
d="M309 272l185 -272h-113l-131 199l-127 -199h-112l185 272l-176 257h114l122 -186l122 186h109z" />
    <glyph glyph-name="y" unicode="y" horiz-adv-x="505" 
d="M396 529l98 0.000976562l-71 -201l-83 -225c-30 -80 -55.833 -145.167 -77.5 -195.5s-41.5 -82.833 -59.5 -97.5c-22 -17.333 -57.333 -26 -106 -26c-6.66699 0 -13.5 1 -20.5 3l-17.5 5v81c6.66699 -2.66699 14.5 -4.83398 23.5 -6.50098s19.167 -2.5 30.5 -2.5
c22 0 37.5 6.16699 46.5 18.5s24.833 46.833 47.5 103.5l-196 543h101l141 -431z" />
    <glyph glyph-name="z" unicode="z" horiz-adv-x="504" 
d="M464 456l-315 -382h324v-74h-442v70l318 385h-294v74h409v-73z" />
    <glyph glyph-name="braceleft" unicode="{" horiz-adv-x="337" 
d="M42 236l-0.000976562 61.001c24 0 43.667 12 59 36s23 55 23 93v173c0 40 10.167 71.833 30.5 95.5s44.5 35.5 72.5 35.5h68v-66h-45c-16.667 0 -28.5 -7.5 -35.5 -22.5s-10.5 -35.167 -10.5 -60.5v-172c0 -40.667 -12.333 -75.334 -37 -104.001
c-17.333 -20.667 -34.666 -33 -51.999 -37c30.667 -12 53.167 -29.667 67.5 -53s21.5 -54.333 21.5 -93v-171c0 -24.667 3.66699 -44.667 11 -60s19.333 -23 36 -23h44v-66h-68c-27.333 0 -51.333 11.833 -72 35.5s-31 55.5 -31 95.5v172c0 38 -7.66699 69.333 -23 94
s-35 37 -59 37z" />
    <glyph glyph-name="bar" unicode="|" horiz-adv-x="262" 
d="M95 -19v764h73v-764h-73z" />
    <glyph glyph-name="braceright" unicode="}" horiz-adv-x="337" 
d="M295 297v-60.999c-24 0 -43.667 -12.167 -59 -36.5s-23 -55.833 -23 -94.5v-172c0 -40 -10.167 -71.833 -30.5 -95.5s-44.5 -35.5 -72.5 -35.5h-68v66h45c16.667 0 28.5 7.5 35.5 22.5s10.5 35.167 10.5 60.5v171c0 36 7.83301 67 23.5 93s37.5 43 65.5 51
c-26.667 9.33301 -48.167 27.166 -64.5 53.499s-24.5 56.166 -24.5 89.499v172c0 25.333 -3.5 45.5 -10.5 60.5s-19.167 22.5 -36.5 22.5h-44v66h68c27.333 0 51.333 -11.833 72 -35.5s31 -55.5 31 -95.5v-173c0 -37.333 7.83301 -68.166 23.5 -92.499
s35.167 -36.5 58.5 -36.5z" />
    <glyph glyph-name="asciitilde" unicode="~" horiz-adv-x="590" 
d="M492 330l36 -57c-16.667 -26.667 -34.667 -47.667 -54 -63c-22.667 -18 -46.667 -27 -72 -27c-23.333 0 -49.666 7.33301 -78.999 22c-66.667 33.333 -113.334 50 -140.001 50c-20 0 -37.667 -7.66699 -53 -23c-12 -12 -22.667 -28.667 -32 -50l-36 57
c14 26.667 29 47 45 61c23.333 20 50.333 30 81 30c21.333 0 60.5 -12.167 117.5 -36.5s89.5 -36.5 97.5 -36.5c18 0 35 7.66699 51 23c10 10 22.667 26.667 38 50z" />
    <glyph glyph-name="c141" horiz-adv-x="842" 
d="M423 95v60l208 271h65v-273h67v-58h-67v-95h-65v95h-208zM631 153v189l-145 -189h145zM659 710l-446 -730h-58l447 730h57zM183 585l-109.001 0.000976562v44c39.333 0 67 4.66699 83 14c18.667 11.333 32.334 33.666 41.001 66.999h53v-427h-68v302z" />
    <glyph glyph-name="c142" horiz-adv-x="842" 
d="M623 710l-446 -729h-58l446 729h58zM152 583h-108.001v46c40 0 68.333 5 85 15s29.334 32 38.001 66h57v-427h-72v300zM534.999 273l-60.999 0.000976562c0 60 20.333 102.667 61 128c26.667 16.667 59.334 25 98.001 25c42.667 0 78 -11.5 106 -34.5
s42 -53.833 42 -92.5c0 -35.333 -12.333 -65.333 -37 -90c-19.333 -19.333 -49.333 -38.333 -90 -57c-36 -16.667 -64.333 -33.667 -85 -51c-14.667 -12 -26.334 -25.333 -35.001 -40h247v-61h-323c0 41.333 11.667 77.333 35 108c20.667 27.333 51.667 51.333 93 72
c46 23.333 76.667 41.666 92 54.999c21.333 18.667 32 40.667 32 66c0 18.667 -5.66699 33.667 -17 45c-14 14 -36.667 21 -68 21c-36.667 0 -62.334 -12.333 -77.001 -37c-8.66699 -14.667 -13 -33.667 -13 -57z" />
    <glyph glyph-name="c143" horiz-adv-x="842" 
d="M477 95v60l209 271h64v-273h68v-58h-68v-95h-64v95h-209zM540 153h146v189zM719 710l-447 -730h-57l446 730h58zM45 414h69c0 -22.667 5 -40.667 15 -54c14 -19.333 38 -29 72 -29c30 0 53.667 6 71 18s26 30 26 54c0 30.667 -12.333 51.334 -37 62.001
c-15.333 6.66699 -37.666 10 -66.999 10h-24v52h28c25.333 0 44.666 4.33301 57.999 13c16.667 10.667 25 28.667 25 54c0 14.667 -4.66699 26.667 -14 36c-14 14 -36.333 21 -67 21c-30 0 -52 -9 -66 -27c-10.667 -14 -16 -32 -16 -54h-62c0 38 10.333 69.333 31 94
c26 30.667 66.667 46 122 46c43.333 0 77.833 -10.5 103.5 -31.5s38.5 -48.167 38.5 -81.5c0 -24.667 -6.66699 -45 -20 -61c-10.667 -13.333 -23.667 -22 -39 -26c24.667 -8 43.5 -19.833 56.5 -35.5s19.5 -37.167 19.5 -64.5c0 -38.667 -13 -70.334 -39 -95.001
c-30 -28.667 -73 -43 -129 -43c-48 0 -85.833 12.5 -113.5 37.5s-41.5 59.833 -41.5 104.5z" />
    <glyph glyph-name="nonbreakingspace" unicode="&#xa0;" horiz-adv-x="500" 
 />
    <glyph glyph-name="exclamdown" unicode="&#xa1;" horiz-adv-x="337" 
d="M120 426v103h97v-103h-97zM144 356h49l24 -313v-240h-97v240z" />
    <glyph glyph-name="cent" unicode="&#xa2;" 
d="M214 79l109 384.999c-4 0.666992 -9.33301 1.33398 -16 2.00098s-11 1 -13 1c-46 0 -82.333 -17.333 -109 -52c-29.333 -38 -44 -93.667 -44 -167c0 -36.667 6.66699 -70.5 20 -101.5s31 -53.5 53 -67.5zM514 348.999h-83c-6 25.333 -12.333 44.333 -19 57
c-12 22.667 -28.333 38 -49 46l-111 -390c4 -1.33301 8.83301 -2.33301 14.5 -3s12.5 -1 20.5 -1c36.667 0 65.667 7.66699 87 23c27.333 20 46.666 54.667 57.999 104h86c-6 -49.333 -24.333 -92.333 -55 -129c-42 -50 -99.667 -75 -173 -75
c-6.66699 0 -21.667 1.66699 -45 5c-3.33301 0 -8.66602 0.666992 -15.999 2l-31 -104h-41l34 115c-42 20.667 -75 50.667 -99 90c-26.667 44 -40 97 -40 159c0 94.667 21.667 167.667 65 219s104.333 77 183 77c18 0 32.667 -2 44 -6l26 92h39l-25 -101
c27.333 -7.33301 52 -23 74 -47c32 -34 50.667 -78.333 56 -133z" />
    <glyph glyph-name="sterling" unicode="&#xa3;" 
d="M206 384l169.004 -0.00488281v-63h-140c2.66699 -9.33301 5 -19.5 7 -30.5s3 -23.167 3 -36.5c0 -30 -10 -61.333 -30 -94c-22 -35.333 -53 -66.666 -93 -93.999l2 2c21.333 10.667 43.166 19.334 65.499 26.001s44.833 10 67.5 10c19.333 0 42.333 -3.66699 69 -11
c60.667 -16.667 94 -25 100 -25c12.667 0 26.667 3.16699 42 9.5s27 13.5 35 21.5l42 -66c-22.667 -17.333 -43.834 -29.833 -63.501 -37.5s-41.5 -11.5 -65.5 -11.5c-14 0 -56 10.333 -126 31c-34 10 -62.333 15 -85 15c-18.667 0 -37.834 -3.5 -57.501 -10.5
s-39.834 -17.167 -60.501 -30.5l-49 70c46.667 30.667 80.334 66.334 101.001 107.001c14.667 28.667 22 56 22 82c0 10 -2 21.833 -6 35.5s-8.33301 26.167 -13 37.5h-109v63h70c-15.333 32 -24.666 52.667 -27.999 62c-10 26.667 -15 51.334 -15 74.001
c0 52.667 17 97.334 51 134.001c44 48 110 72 198 72c71.333 0 126.666 -22.667 165.999 -68c34 -39.333 51 -88.333 51 -147v-16h-89v9c0 42 -12.667 76.667 -38 104s-58.666 41 -99.999 41c-48.667 0 -86.334 -15.667 -113.001 -47c-20.667 -24 -31 -49.667 -31 -77
c0 -18.667 4.16699 -38.667 12.5 -60s21.166 -48.333 38.499 -81z" />
    <glyph glyph-name="currency" unicode="&#xa4;" 
d="M485 610l48 -48.999l-55 -55c16.667 -19.333 29.167 -41.833 37.5 -67.5s12.5 -53.5 12.5 -83.5c0 -60 -16.667 -111 -50 -153l54 -56l-45 -46l-56 59c-39.333 -36.667 -89.333 -55 -150 -55s-110.667 18.333 -150 55l-56 -59l-45 46l54 56
c-16.667 21.333 -29.167 44.666 -37.5 69.999s-12.5 53 -12.5 83c0 29.333 4 57 12 83s20.667 48.667 38 68l-55 55l48 49l58 -57c39.333 34 88 51 146 51s106.667 -17 146 -51zM107 355.001c0 -49.333 16.8301 -91.833 50.4971 -127.5s74.834 -53.5 123.501 -53.5
c48 0 89 18 123 54s51 78.333 51 127c0 48 -17.167 89.833 -51.5 125.5s-75.166 53.5 -122.499 53.5s-88.166 -17.833 -122.499 -53.5s-51.5 -77.5 -51.5 -125.5z" />
    <glyph glyph-name="yen" unicode="&#xa5;" 
d="M43 330v57h155l-195 307h101l177 -298l177 298h101l-195 -307h156v-57h-195v-86h195v-58h-195v-186h-88v186h-194v58h194v86h-194z" />
    <glyph glyph-name="brokenbar" unicode="&#xa6;" horiz-adv-x="262" 
d="M95 -19v297h73v-297h-73zM95 465v280h73v-280h-73z" />
    <glyph glyph-name="section" unicode="&#xa7;" 
d="M466 560l-89 -0.000976562c0 28 -4.33301 50 -13 66c-15.333 28 -43.666 42 -84.999 42c-23.333 0 -43.666 -6 -60.999 -18c-21.333 -14.667 -32 -36 -32 -64c0 -20 11 -40.333 33 -61c26.667 -25.333 71.167 -53.666 133.5 -84.999s105.5 -61 129.5 -89
s36 -62.667 36 -104c0 -39.333 -10.667 -73 -32 -101c-16 -20.667 -40 -41 -72 -61c18 -18.667 31.167 -36.5 39.5 -53.5s12.5 -37.5 12.5 -61.5c0 -48.667 -19.667 -88.667 -59 -120c-36 -28.667 -77.333 -43 -124 -43c-60.667 0 -108 14.667 -142 44
c-38 32.667 -57 81.334 -57 146.001h89c0 -38.667 8.5 -67.167 25.5 -85.5s41.167 -27.5 72.5 -27.5c27.333 0 49.666 4.66699 66.999 14c26 14 39 37.333 39 70c0 22 -12 44.167 -36 66.5s-65 49.833 -123 82.5c-66.667 38 -111.334 68.667 -134.001 92
c-26.667 28 -40 62.333 -40 103c0 39.333 9.33301 72.333 28 99c15.333 21.333 39.333 41.666 72 60.999c-16.667 18.667 -28.667 35.5 -36 50.5s-11 31.833 -11 50.5c0 44 13.667 82 41 114c33.333 38.667 80.333 58 141 58c50.667 0 92 -12 124 -36
c42 -31.333 63 -81 63 -149zM434 227.999c0 24 -12.001 47 -36.001 69c-32 29.333 -99.333 74.666 -202 135.999c-22.667 -12 -39 -24.667 -49 -38c-12.667 -16.667 -19 -36.667 -19 -60c0 -28 12.833 -53.5 38.5 -76.5s91.5 -67.167 197.5 -132.5
c24.667 16 41.334 29.333 50.001 40c13.333 16.667 20 37.334 20 62.001z" />
    <glyph glyph-name="dieresis" unicode="&#xa8;" horiz-adv-x="674" 
d="M623 0h-536v725h529v-87h-431v-222h397v-87h-397v-242h438v-87zM301 910v-104h-91v104h91zM465 910v-104h-92v104h92z" />
    <glyph glyph-name="copyright" unicode="&#xa9;" horiz-adv-x="745" 
d="M374 -19c-107.333 0 -198.333 36 -273 108c-76.667 74 -115 165.667 -115 275c0 108 37.833 198.5 113.5 271.5s167.167 109.5 274.5 109.5c106 0 196.833 -36.5 272.5 -109.5s113.5 -163.5 113.5 -271.5c0 -108.667 -38 -199.667 -114 -273s-166.667 -110 -272 -110z
M63 364c0 -90.667 29.833 -166.5 89.5 -227.5s133.5 -91.5 221.5 -91.5c87.333 0 160.666 30.333 219.999 91s89 136.667 89 228c0 90 -29.667 165.333 -89 226s-132.666 91 -219.999 91c-88 0 -161.833 -30.167 -221.5 -90.5s-89.5 -135.833 -89.5 -226.5zM506 292
l68.999 -0.00195312c-9.33301 -49.333 -31.333 -88.666 -66 -117.999s-75.334 -44 -122.001 -44c-67.333 0 -121.666 22.333 -162.999 67s-62 100.667 -62 168c0 68.667 20 124.667 60 168s93.667 65 161 65c50.667 0 93.5 -13.667 128.5 -41s55.833 -66.333 62.5 -117h-68
c-6 28.667 -19.667 51.167 -41 67.5s-48.333 24.5 -81 24.5c-46 0 -81.667 -15.333 -107 -46s-38 -70.667 -38 -120c0 -47.333 13.5 -87.5 40.5 -120.5s62.833 -49.5 107.5 -49.5c31.333 0 57.833 8.83301 79.5 26.5s34.834 40.834 39.501 69.501z" />
    <glyph glyph-name="ordfeminine" unicode="&#xaa;" horiz-adv-x="730" 
d="M469 411l-326.998 -0.000976562c8 79.333 32 140.333 72 183s91.667 64 155 64c48 0 88.667 -9 122 -27c46 -25.333 76.333 -66.666 91 -123.999h95c-13.333 68 -44 123 -92 165c-55.333 48.667 -127.333 73 -216 73c-102 0 -182.167 -34.833 -240.5 -104.5
s-87.5 -160.834 -87.5 -273.501c0 -130 33.667 -229 101 -297c58.667 -59.333 133.667 -89 225 -89c31.333 0 63.666 4.66699 96.999 14c53.333 14.667 97.333 38.334 132 71.001c46.667 43.333 76 100.333 88 171h-95c-12 -60.667 -43.667 -106 -95 -136
c-38 -22 -78.667 -33 -122 -33c-74.667 0 -132.334 25 -173.001 75c-38 46.667 -57 109.667 -57 189h327v79z" />
    <glyph glyph-name="guillemotleft" unicode="&#xab;" 
d="M257 198v-89l-159 125v92l159 125v-89l-106 -82zM464 198v-89l-159 125v92l159 125v-89l-106 -82z" />
    <glyph glyph-name="logicalnot" unicode="&#xac;" horiz-adv-x="590" 
d="M477 109v211h-438v73h512v-284h-74z" />
    <glyph glyph-name="minus" unicode="&#xad;" horiz-adv-x="337" 
d="M292 325v-90h-247v90h247z" />
    <glyph glyph-name="registered" unicode="&#xae;" horiz-adv-x="745" 
d="M374 -19c-107.333 0 -198.333 36 -273 108c-76.667 74 -115 165.667 -115 275c0 108 37.833 198.5 113.5 271.5s167.167 109.5 274.5 109.5c106 0 196.833 -36.5 272.5 -109.5s113.5 -163.5 113.5 -271.5c0 -108.667 -38 -199.667 -114 -273s-166.667 -110 -272 -110z
M63 364c0 -90.667 29.833 -166.5 89.5 -227.5s133.5 -91.5 221.5 -91.5c87.333 0 160.666 30.333 219.999 91s89 136.667 89 228c0 90 -29.667 165.333 -89 226s-132.666 91 -219.999 91c-88 0 -161.833 -30.167 -221.5 -90.5s-89.5 -135.833 -89.5 -226.5zM293 334v-191
h-66v440h167c104 0 156 -41.667 156 -125c0 -37.333 -11 -66.333 -33 -87c-19.333 -18.667 -46.333 -30 -81 -34l125 -194h-75l-116 191h-77zM293 390h80.001c36 0 61 3.33301 75 10c21.333 10 32 30.667 32 62c0 25.333 -8.83301 42.5 -26.5 51.5
s-40.834 13.5 -69.501 13.5h-91v-137z" />
    <glyph glyph-name="macron" unicode="&#xaf;" horiz-adv-x="280" 
d="M189 725v-725h-97v725h97zM105 910v-104h-92v104h92zM268 910v-104h-92v104h92z" />
    <glyph glyph-name="degree" unicode="&#xb0;" horiz-adv-x="404" 
d="M202 667c-27.333 0 -50.666 -10.333 -69.999 -31s-29 -45 -29 -73c0 -27.333 9.83301 -51.5 29.5 -72.5s42.834 -31.5 69.501 -31.5c27.333 0 50.666 10.333 69.999 31s29 45 29 73c0 27.333 -9.83301 51.5 -29.5 72.5s-42.834 31.5 -69.501 31.5zM349 563
c0 -42 -14 -77 -42 -105s-63 -42 -105 -42s-77 14 -105 42s-42 63 -42 105s14 77 42 105s63 42 105 42s77 -14 105 -42s42 -63 42 -105z" />
    <glyph glyph-name="plusminus" unicode="&#xb1;" horiz-adv-x="590" 
d="M258 349v163h74v-163h219v-74h-219v-162h-74v162h-219v74h219zM39 0v74h512v-74h-512z" />
    <glyph glyph-name="twosuperior" unicode="&#xb2;" horiz-adv-x="280" 
d="M189 726v-726h-97v726h97z" />
    <glyph glyph-name="threesuperior" unicode="&#xb3;" horiz-adv-x="224" 
d="M156 529v-529h-88v529h88zM156 625h-88v101h88v-101z" />
    <glyph glyph-name="acute" unicode="&#xb4;" horiz-adv-x="336" 
d="M322 742l-131 -143h-68l90 143h109z" />
    <glyph glyph-name="mu" unicode="&#xb5;" 
d="M494 0h-84.001v77l-2 2c-19.333 -32.667 -41.666 -56.5 -66.999 -71.5s-58.666 -22.5 -99.999 -22.5c-14 0 -27 2 -39 6c-17.333 6 -31.333 16 -42 30l-2 -230h-89v358v380h89v-351c0 -40.667 9.66699 -70.667 29 -90c17.333 -17.333 41.666 -26 72.999 -26
c50.667 0 88.667 19.667 114 59c20.667 32 31 71 31 117v291h89v-529z" />
    <glyph glyph-name="paragraph" unicode="&#xb6;" horiz-adv-x="543" 
d="M235 -174l0.000976562 522c-64.667 0 -116.834 17.5 -156.501 52.5s-59.5 79.5 -59.5 133.5c0 64.667 20.5 112.667 61.5 144s98.167 47 171.5 47h250v-899h-73v839h-121v-839h-73z" />
    <glyph glyph-name="periodcentered" unicode="&#xb7;" horiz-adv-x="280" 
d="M140 319c16.667 0 31.502 -6.16797 44.502 -18.501s19.5 -27.5 19.5 -45.5c0 -16 -6.16699 -30.5 -18.5 -43.5s-27.5 -19.5 -45.5 -19.5c-16.667 0 -31.334 6.33301 -44.001 19s-19 27.334 -19 44.001c0 18 6.16699 33.167 18.5 45.5s27.166 18.5 44.499 18.5z" />
    <glyph glyph-name="periodcentered" unicode="&#x2219;" horiz-adv-x="280" 
d="M140 319c16.667 0 31.502 -6.16797 44.502 -18.501s19.5 -27.5 19.5 -45.5c0 -16 -6.16699 -30.5 -18.5 -43.5s-27.5 -19.5 -45.5 -19.5c-16.667 0 -31.334 6.33301 -44.001 19s-19 27.334 -19 44.001c0 18 6.16699 33.167 18.5 45.5s27.166 18.5 44.499 18.5z" />
    <glyph glyph-name="cedilla" unicode="&#xb8;" 
d="M425 165l89 0.000976562c-12.667 -57.333 -37.334 -101 -74.001 -131c-40 -33.333 -94.333 -50 -163 -50c-73.333 0 -131 24.5 -173 73.5s-63 112.833 -63 191.5c0 87.333 20 156.666 60 207.999c44.667 57.333 109 86 193 86c74.667 0 131.667 -28 171 -84
c37.333 -53.333 56 -128 56 -224h-385c0 -56 12.833 -99 38.5 -129s63.834 -45 114.501 -45c38.667 0 71.667 12.333 99 37c24.667 22 37 44.333 37 67zM136 306.001h293c0 44.667 -11 81 -33 109c-25.333 32 -63.333 48 -114 48c-40.667 0 -75.167 -15.833 -103.5 -47.5
s-42.5 -68.167 -42.5 -109.5zM246 713.001v-103h-92v103h92zM409 713.001v-103h-92v103h92z" />
    <glyph glyph-name="onesuperior" unicode="&#xb9;" horiz-adv-x="1122" 
d="M558 726h95v-726h-110l-369 586l-2 -586h-95v726h116l363 -586zM1065 321c0 -60 -17.333 -104.334 -52 -133.001c-28 -23.333 -64 -35 -108 -35c-44.667 0 -80.667 11.333 -108 34c-34.667 28.667 -52 73.334 -52 134.001c0 59.333 17.333 103.333 52 132
c28 23.333 64 35 108 35c44.667 0 80.667 -11.333 108 -34c34.667 -28.667 52 -73 52 -133zM997 320.999c0 29.333 -5.33203 53.667 -15.999 73c-15.333 28 -40.666 42 -75.999 42c-34.667 0 -59.667 -14 -75 -42c-11.333 -20.667 -17 -45 -17 -73
c0 -39.333 9.33301 -69.333 28 -90c15.333 -17.333 36.666 -26 63.999 -26c35.333 0 60.666 14 75.999 42c10.667 19.333 16 44 16 74zM755.001 99h300v-48h-300v48z" />
    <glyph glyph-name="ordmasculine" unicode="&#xba;" horiz-adv-x="505" 
d="M117 308l189.003 0.000976562v-70h-189c0 -46.667 11.667 -86.334 35 -119.001c27.333 -38 63.666 -57 108.999 -57c66.667 0 109.667 34.333 129 103h89c-8.66699 -47.333 -29.667 -87.333 -63 -120c-40.667 -40 -93.334 -60 -158.001 -60
c-72.667 0 -130.167 25 -172.5 75s-63.5 114.333 -63.5 193c0 86.667 20.333 156 61 208c43.333 55.333 103.666 83 180.999 83c57.333 0 107.333 -20.333 150 -61c39.333 -37.333 61 -80.333 65 -129h-89c-8 37.333 -22 65 -42 83s-48.667 27 -86 27
c-44.667 0 -80.667 -16.333 -108 -49c-24.667 -29.333 -37 -65 -37 -107z" />
    <glyph glyph-name="guillemotright" unicode="&#xbb;" 
d="M257 234l-159 -125v89l106 82l-106 82v89l159 -125v-92zM464 234l-159 -125v89l106 82l-106 82v89l159 -125v-92z" />
    <glyph glyph-name="onequarter" unicode="&#xbc;" horiz-adv-x="590" 
d="M551 219h-512v73h512v-73zM226 461c0 18.667 6.83301 34.832 20.5 48.499s29.834 20.5 48.501 20.5s34.834 -6.83301 48.501 -20.5s20.5 -29.834 20.5 -48.501c0 -17.333 -6.83301 -33.166 -20.5 -47.499s-29.834 -21.5 -48.501 -21.5s-34.834 6.83301 -48.501 20.5
s-20.5 29.834 -20.5 48.501zM226 49.998c0 18.667 6.83301 34.832 20.5 48.499s29.834 20.5 48.501 20.5s34.834 -6.83301 48.501 -20.5s20.5 -29.834 20.5 -48.501c0 -17.333 -6.83301 -33.166 -20.5 -47.499s-29.834 -21.5 -48.501 -21.5s-34.834 6.83301 -48.501 20.5
s-20.5 29.834 -20.5 48.501z" />
    <glyph glyph-name="onehalf" unicode="&#xbd;" horiz-adv-x="590" 
d="M243 256l-204 204l53 52l203 -203l204 203l52 -52l-203 -204l203 -204l-52 -52l-204 203l-204 -203l-52 52z" />
    <glyph glyph-name="threequarters" unicode="&#xbe;" horiz-adv-x="842" 
d="M477 95v60l209 271h64v-273h68v-58h-68v-95h-64v95h-209zM540 153h146v189zM719 710l-447 -730h-57l446 730h58zM45 414l68.999 -0.000976562c0 -23.333 5 -41.666 15 -54.999c14 -18.667 38 -28 72 -28c30 0 53.667 6 71 18s26 30 26 54
c0 30.667 -12.333 51.334 -37 62.001c-15.333 6.66699 -37.666 10 -66.999 10h-24v52h28c25.333 0 44.666 4.33301 57.999 13c16.667 10.667 25 28.667 25 54c0 14.667 -4.66699 26.667 -14 36c-14 14 -36.333 21 -67 21c-30 0 -52 -9 -66 -27c-10.667 -14 -16 -32 -16 -54
h-62c0 38 10.333 69.333 31 94c26 30.667 66.667 46 122 46c43.333 0 77.833 -10.5 103.5 -31.5s38.5 -48.167 38.5 -81.5c0 -24.667 -6.66699 -45 -20 -61c-10.667 -13.333 -23.667 -22 -39 -26c24.667 -8 43.5 -19.833 56.5 -35.5s19.5 -37.167 19.5 -64.5
c0 -38.667 -13 -70.334 -39 -95.001c-30 -28.667 -73 -43 -129 -43c-17.333 0 -32.666 1.5 -45.999 4.5s-26.333 7.83301 -39 14.5c-24 11.333 -41.667 28 -53 50s-17 46.333 -17 73z" />
    <glyph glyph-name="questiondown" unicode="&#xbf;" horiz-adv-x="280" 
d="M184 529v-529h-88v529h88zM105 714v-103h-92v103h92zM268 714v-103h-92v103h92z" />
    <glyph glyph-name="Agrave" unicode="&#xc0;" horiz-adv-x="673" 
d="M481 212h-290l-76 -212h-101l273 726h111l262 -726h-107zM221 298h225l-107 320z" />
    <glyph glyph-name="Aacute" unicode="&#xc1;" horiz-adv-x="674" 
d="M588 639h-413v-219h240c74 0 130.333 -22 169 -66c34 -38.667 51 -88 51 -148c0 -57.333 -22 -106 -66 -146s-95.333 -60 -154 -60h-338v726h511v-87zM175 336v-252h215c43.333 0 77.333 9.33301 102 28c28 21.333 42 53 42 95c0 47.333 -13.667 81.333 -41 102
c-23.333 18 -59 27 -107 27h-211z" />
    <glyph glyph-name="Acircumflex" unicode="&#xc2;" horiz-adv-x="673" 
d="M172 642l0.000976562 -223.001h177c50 0 87 8.33301 111 25c26.667 18.667 40 49.334 40 92.001c0 34.667 -11.833 61 -35.5 79s-61.834 27 -114.501 27h-178zM74.001 -0.000976562l-0.000976562 725.998h319c64.667 0 115.667 -18 153 -54
c34.667 -33.333 52 -76.333 52 -129c0 -29.333 -6 -55.666 -18 -78.999c-16.667 -31.333 -43 -55.666 -79 -72.999c38.667 -15.333 66.667 -31.333 84 -48c32 -30.667 48 -73.334 48 -128.001c0 -61.333 -21 -111.666 -63 -150.999
c-45.333 -42.667 -106.666 -64 -183.999 -64h-312zM172 338.997v-255h209c50 0 88.167 11.833 114.5 35.5s39.5 56.167 39.5 97.5c0 46 -18.333 79 -55 99c-28 15.333 -66.333 23 -115 23h-193z" />
    <glyph glyph-name="Atilde" unicode="&#xc3;" horiz-adv-x="561" 
d="M175 639v-639h-98v726h475v-87h-377z" />
    <glyph glyph-name="Adieresis" unicode="&#xc4;" horiz-adv-x="719" 
d="M81 87c32.667 68 54 133 64 195c8 48.667 12 120 12 214v230h475v-639h64v-244h-90v157h-496v-157h-90v244h61zM255 639l0.000976562 -162.001c0 -89.333 -4.33301 -158.666 -13 -207.999c-10.667 -60 -31.334 -120.667 -62.001 -182h354v552h-279z" />
    <glyph glyph-name="Aring" unicode="&#xc5;" horiz-adv-x="674" 
d="M623 87v-87h-536v726h529v-87h-431v-222h397v-87h-397v-243h438z" />
    <glyph glyph-name="AE" unicode="&#xc6;" horiz-adv-x="1009" 
d="M555 0v258l93 104l226 -362h119l-271 431l258 295h-125l-300 -349v349h-97v-349l-300 349h-125l258 -295l-271 -431h119l226 362l93 -104v-258h97z" />
    <glyph glyph-name="Ccedilla" unicode="&#xc7;" horiz-adv-x="673" 
d="M136 235c0 -62 19.333 -106.338 58 -133.005c32.667 -22.667 81.667 -34 147 -34c48.667 0 90 8.66699 124 26c44.667 22.667 67 57.334 67 104.001c0 50 -18 87 -54 111c-30.667 20.667 -73.667 31 -129 31h-76v80h55c46.667 0 86 9 118 27
c37.333 20.667 56 49.334 56 86.001c0 48.667 -19.667 83.334 -59 104.001c-28 14.667 -64 22 -108 22c-50.667 0 -92.334 -10.333 -125.001 -31c-40.667 -26 -61 -65 -61 -117h-92c0 56 18.333 105 55 147c50.667 58 128.334 87 233.001 87c76 0 138 -18.333 186 -55
s72 -85.334 72 -146.001c0 -43.333 -15.333 -80.333 -46 -111c-25.333 -25.333 -52.666 -40.666 -81.999 -45.999c46.667 -9.33301 84.667 -30.666 114 -63.999s44 -75.666 44 -126.999c0 -74.667 -31.333 -130.667 -94 -168c-52 -31.333 -117.333 -47 -196 -47
c-118.667 0 -201.334 26.333 -248.001 79c-34 38.667 -51 97 -51 175h92z" />
    <glyph glyph-name="Egrave" unicode="&#xc8;" horiz-adv-x="730" 
d="M172 726v-594h4l368 594h112v-726h-98v586l-371 -586h-113v726h98z" />
    <glyph glyph-name="Eacute" unicode="&#xc9;" horiz-adv-x="730" 
d="M172 726v-594h4l368 594h112v-726h-98v586l-371 -586h-113v726h98zM257 920l-49.998 0.00292969c5.33301 -46.667 20.666 -81.334 45.999 -104.001s60.333 -34 105 -34s79.5 11.167 104.5 33.5s40.167 57.166 45.5 104.499h-49
c-6.66699 -24.667 -16.334 -42.667 -29.001 -54c-16.667 -14.667 -40.667 -22 -72 -22c-32 0 -55.667 7 -71 21c-12.667 11.333 -22.667 29.666 -30 54.999z" />
    <glyph glyph-name="Ecircumflex" unicode="&#xca;" horiz-adv-x="674" 
d="M175 255v-255h-98v726h98v-352l352 352h135l-302 -293l310 -433h-127l-254 364z" />
    <glyph glyph-name="Edieresis" unicode="&#xcb;" horiz-adv-x="701" 
d="M528 639h-276.999v-303c0 -132 -15.667 -225.667 -47 -281c-26.667 -46.667 -67.667 -70 -123 -70c-8.66699 0 -18.834 0.666992 -30.501 2s-23.834 3 -36.501 5v82c6 -1.33301 13 -2.33301 21 -3s16.333 -1 25 -1c36.667 0 61.334 23 74.001 69s19 122 19 228v359h473
v-726h-98v639z" />
    <glyph glyph-name="Igrave" unicode="&#xcc;" horiz-adv-x="841" 
d="M768 0h-95v429l3 181l-206 -610h-97l-204 610v-181v-429h-95v726h140l206 -614l209 614h139v-726z" />
    <glyph glyph-name="Iacute" unicode="&#xcd;" horiz-adv-x="730" 
d="M555 426v300h98v-726h-98v339h-379v-339h-98v726h98v-300h379z" />
    <glyph glyph-name="Icircumflex" unicode="&#xce;" horiz-adv-x="786" 
d="M646 363c0 87.333 -22.667 158.333 -68 213s-107 82 -185 82s-139.667 -27.333 -185 -82s-68 -125.667 -68 -213s22.667 -158.333 68 -213s107 -82 185 -82s139.667 27.333 185 82s68 125.667 68 213zM746 363c0 -97.333 -24.667 -180.666 -74 -249.999
c-62.667 -88 -155.667 -132 -279 -132c-122 0 -214.667 44 -278 132c-50 70 -75 153.333 -75 250c0 97.333 24.667 180.666 74 249.999c62.667 88 155.667 132 279 132c122 0 214.667 -44 278 -132c50 -70 75 -153.333 75 -250z" />
    <glyph glyph-name="Idieresis" unicode="&#xcf;" horiz-adv-x="730" 
d="M653 726v-726h-98v639h-379v-639h-98v726h575z" />
    <glyph glyph-name="Eth" unicode="&#xd0;" horiz-adv-x="674" 
d="M185 642v-251.999h195c47.333 0 83 9.33301 107 28c27.333 21.333 41 55.666 41 102.999c0 42.667 -13 73.5 -39 92.5s-61 28.5 -105 28.5h-199zM185 306.001v-306h-98v726h327c66 0 118.333 -19 157 -57s58 -87 58 -147c0 -58 -16 -106.667 -48 -146
c-38 -46.667 -93.667 -70 -167 -70h-229z" />
    <glyph glyph-name="Ntilde" unicode="&#xd1;" horiz-adv-x="730" 
d="M681 507l-95.001 0.000976562c-12 56.667 -40.333 97.667 -85 123c-33.333 18.667 -72.666 28 -117.999 28c-69.333 0 -125.333 -24 -168 -72c-46 -51.333 -69 -123.333 -69 -216c0 -93.333 17.333 -165 52 -215c40 -58 102.667 -87 188 -87
c43.333 0 81.666 12 114.999 36c46.667 33.333 77.334 87.666 92.001 162.999h95c-12 -82.667 -41 -148 -87 -196c-34 -35.333 -78 -60.666 -132 -75.999c-33.333 -9.33301 -66 -14 -98 -14c-92 0 -167 29.333 -225 88c-67.333 68 -101 167.333 -101 298
c0 113.333 30.333 204.666 91 273.999s143 104 247 104c88 0 159.333 -24.333 214 -73c48.667 -43.333 76.667 -98.333 84 -165z" />
    <glyph glyph-name="Ograve" unicode="&#xd2;" horiz-adv-x="617" 
d="M14 639v87h589v-87h-246v-639h-97v639h-246z" />
    <glyph glyph-name="Oacute" unicode="&#xd3;" horiz-adv-x="666" 
d="M546 726h105.001l-272 -611c-23.333 -52.667 -48 -89 -74 -109c-22.667 -17.333 -50.334 -26 -83.001 -26c-14 0 -25.333 0.5 -34 1.5s-21 3.16699 -37 6.5v81c15.333 -2.66699 34.333 -4 57 -4c18 0 31.5 3.83301 40.5 11.5s22.167 27.167 39.5 58.5l-281 591h105
l223 -496z" />
    <glyph glyph-name="Ocircumflex" unicode="&#xd4;" horiz-adv-x="841" 
d="M470 726l0.000976562 -75c107.333 0 191.666 -29.333 252.999 -88c56 -53.333 84 -120 84 -200c0 -79.333 -27.667 -145.666 -83 -198.999c-62 -59.333 -146.667 -89 -254 -89v-75h-97v75c-108 0 -192.667 29.333 -254 88c-55.333 53.333 -83 120 -83 200
c0 79.333 27.667 145.666 83 198.999c62 59.333 146.667 89 254 89v75h97zM137.001 363c0 -70.667 22.333 -124.333 67 -161c40.667 -33.333 97 -50 169 -50v422c-72 0 -128.333 -16.333 -169 -49c-44.667 -36 -67 -90 -67 -162zM706.001 363.001
c0 70.667 -22.333 124.333 -67 161c-40.667 33.333 -97 50 -169 50v-422c72 0 128.333 16.333 169 49c44.667 36 67 90 67 162z" />
    <glyph glyph-name="Otilde" unicode="&#xd5;" horiz-adv-x="673" 
d="M400 372l254 -372h-121l-195 298l-201 -298h-118l259 372l-243 354h123l184 -278l184 278h117z" />
    <glyph glyph-name="Odieresis" unicode="&#xd6;" horiz-adv-x="737" 
d="M175 87h379v639h98v-639h64v-244h-90v157h-549v726h98v-639z" />
    <glyph glyph-name="multiply" unicode="&#xd7;" horiz-adv-x="696" 
d="M518 417l0.000976562 309h98v-726h-98v336c-51.333 -12.667 -94.5 -21.167 -129.5 -25.5s-68.833 -6.5 -101.5 -6.5c-62 0 -110.667 13.333 -146 40c-42.667 32.667 -64 84.667 -64 156v226h98v-224c0 -39.333 14 -68.333 42 -87c24 -16 57.333 -24 100 -24
c25.333 0 51.666 1.66699 78.999 5c8 0.666992 48.667 7.66699 122 21z" />
    <glyph glyph-name="Oslash" unicode="&#xd8;" horiz-adv-x="985" 
d="M540 726v-639h267v639h98v-726h-828v726h98v-639h267v639h98z" />
    <glyph glyph-name="Ugrave" unicode="&#xd9;" horiz-adv-x="985" 
d="M539 726v-639h267v639h98v-639h64v-244h-89v157h-803v726h98v-639h267v639h98z" />
    <glyph glyph-name="Uacute" unicode="&#xda;" horiz-adv-x="729" 
d="M230 726l-0.000976562 -306h239c72.667 0 128.334 -23.333 167.001 -70c32 -38.667 48 -87.334 48 -146.001c0 -59.333 -19.5 -108.166 -58.5 -146.499s-91.167 -57.5 -156.5 -57.5h-337v642h-133v84h231zM229.999 336l-0.000976562 -252h210
c44.667 0 78.667 8.66699 102 26c27.333 20 41 51.667 41 95c0 46.667 -12.667 80.167 -38 100.5s-61.666 30.5 -108.999 30.5h-206z" />
    <glyph glyph-name="Ucircumflex" unicode="&#xdb;" horiz-adv-x="894" 
d="M174 726v-306h240c72 0 127.333 -23.333 166 -70c32.667 -39.333 49 -88 49 -146c0 -60 -19.333 -109 -58 -147s-91 -57 -157 -57h-338v726h98zM174 336v-252h210c44 0 78 8.66699 102 26c28 20 42 51.667 42 95c0 46.667 -13 80.167 -39 100.5s-62.333 30.5 -109 30.5
h-206zM817 726v-726h-98v726h98z" />
    <glyph glyph-name="Udieresis" unicode="&#xdc;" horiz-adv-x="673" 
d="M174 726v-306h240c72 0 127.333 -23.333 166 -70c32.667 -39.333 49 -88 49 -146c0 -60 -19.333 -109 -58 -147s-91 -57 -157 -57h-338v726h98zM174 336v-252h210c44 0 78 8.66699 102 26c28 20 42 51.667 42 95c0 46.667 -13 80.167 -39 100.5s-62.333 30.5 -109 30.5
h-206z" />
    <glyph glyph-name="Yacute" unicode="&#xdd;" horiz-adv-x="730" 
d="M257 411l326.999 -0.000976562c-8 79.333 -32 140.333 -72 183s-91.667 64 -155 64c-48 0 -88.667 -9 -122 -27c-46 -25.333 -76.333 -66.666 -91 -123.999h-95c13.333 68 44 123 92 165c55.333 48.667 127.333 73 216 73c102 0 182.667 -35.333 242 -106
c57.333 -68.667 86 -159.334 86 -272.001c0 -130 -33.667 -229 -101 -297c-58.667 -59.333 -133.667 -89 -225 -89c-31.333 0 -63.666 4.66699 -96.999 14c-53.333 14.667 -97.333 38.334 -132 71.001c-46.667 43.333 -76 100.333 -88 171h95
c12 -60.667 43.667 -106 95 -136c38 -22 78.667 -33 122 -33c75.333 0 133.333 25 174 75c38.667 47.333 58 110.333 58 189h-329v79z" />
    <glyph glyph-name="Thorn" unicode="&#xde;" horiz-adv-x="995" 
d="M174 426l114.999 -0.00195312c12 88 41.333 159.667 88 215c58.667 69.333 139.334 104 242.001 104c116.667 0 204.334 -44 263.001 -132c46.667 -69.333 70 -152.666 70 -249.999s-24 -180.666 -72 -249.999c-60.667 -88 -151 -132 -271 -132
c-106.667 0 -189.334 40.333 -248.001 121c-48.667 66.667 -73 145.667 -73 237h-114v-339h-98v726h98v-300zM850.999 362.998c0 88 -20.667 159.166 -62 213.499s-98 81.5 -170 81.5c-74 0 -131.167 -27 -171.5 -81s-60.5 -125.333 -60.5 -214
c0 -88 20.667 -159.167 62 -213.5s98 -81.5 170 -81.5c74 0 131.667 27.667 173 83c39.333 52.667 59 123.334 59 212.001z" />
    <glyph glyph-name="germandbls" unicode="&#xdf;" horiz-adv-x="722" 
d="M532 0v311h-162l-194 -311h-123l206 311c-50.667 9.33301 -91.667 27.333 -123 54c-45.333 38 -68 92 -68 162c0 70.667 24.667 123 74 157c40.667 28 95.667 42 165 42h323v-726h-98zM532 395v247h-232c-36 0 -64 -6 -84 -18c-31.333 -18.667 -47 -53 -47 -103
c0 -46 17 -79.667 51 -101c26.667 -16.667 62 -25 106 -25h206z" />
    <glyph glyph-name="agrave" unicode="&#xe0;" 
d="M145 368h-81.999c0 60.667 19.333 105.167 58 133.5s92 42.5 160 42.5c42 0 79.667 -7.66699 113 -23c55.333 -25.333 83 -67 83 -125v-302c0 -22 9.66699 -33 29 -33l29 4v-65l-26 -7c-7.33301 -2 -14.666 -3 -21.999 -3c-35.333 0 -60.333 8.33301 -75 25
c-10 11.333 -16.333 30 -19 56c-30.667 -32.667 -61.334 -55.167 -92.001 -67.5s-63.667 -18.5 -99 -18.5c-48.667 0 -88.334 14 -119.001 42s-46 65 -46 111c0 45.333 10.333 81.333 31 108c32.667 41.333 89.667 62 171 62c66 0 107.333 5.16699 124 15.5
s25 30.833 25 61.5c0 56.667 -41 85 -123 85c-44 0 -76 -12 -96 -36c-12.667 -15.333 -20.667 -37.333 -24 -66zM388.001 183l-0.000976562 87c-7.33301 -6 -21.166 -11.5 -41.499 -16.5s-50.833 -10.167 -91.5 -15.5s-69.334 -12.333 -86.001 -21
c-26.667 -14.667 -40 -36.667 -40 -66c0 -30 7.83301 -52.833 23.5 -68.5s39.834 -23.5 72.501 -23.5c43.333 0 81.333 11.833 114 35.5s49 53.167 49 88.5z" />
    <glyph glyph-name="aacute" unicode="&#xe1;" horiz-adv-x="570" 
d="M527 257c0 -74 -19.9961 -136 -59.9961 -186c-45.333 -57.333 -109.666 -86 -192.999 -86c-72.667 0 -129.334 25.667 -170.001 77c-45.333 57.333 -68 144 -68 260c0 96 20.667 174.667 62 236c44 65.333 106.333 104 187 116c49.333 7.33301 81.166 13.833 95.499 19.5
s25.166 16.5 32.499 32.5h81c-17.333 -44.667 -41.333 -75.667 -72 -93c-20.667 -11.333 -56 -20.333 -106 -27c-110.667 -14 -178.334 -76.667 -203.001 -188c22 30.667 49.667 55.167 83 73.5s67.666 27.5 102.999 27.5c70 0 126.333 -27 169 -81
c39.333 -50 59 -110.333 59 -181zM282.004 62c56 0 97.668 25.333 125.001 76c19.333 36 29 75.667 29 119c0 42 -9.66699 80.333 -29 115c-27.333 48.667 -69 73 -125 73c-50.667 0 -90.334 -21.333 -119.001 -64c-24 -36 -36 -77.333 -36 -124
c0 -52 9.66699 -94.667 29 -128c26 -44.667 68 -67 126 -67z" />
    <glyph glyph-name="acircumflex" unicode="&#xe2;" horiz-adv-x="546" 
d="M155 455v-145h129c38.667 0 66 6 82 18s24 32.667 24 62c0 22 -7.83301 38.333 -23.5 49s-42.5 16 -80.5 16h-131zM155 240v-166h159c36 0 62.833 6.33301 80.5 19s26.5 33.667 26.5 63c0 28 -10.167 49 -30.5 63s-48.833 21 -85.5 21h-150zM316 0h-250v529h240
c56 0 99.333 -13.333 130 -40c28.667 -24.667 43 -56.334 43 -95.001c0 -30 -8.5 -54.667 -25.5 -74s-38.167 -32.666 -63.5 -39.999c34.667 -8 61.667 -21.333 81 -40c26 -24.667 39 -58 39 -100c0 -42.667 -16.833 -76.667 -50.5 -102s-81.5 -38 -143.5 -38z" />
    <glyph glyph-name="atilde" unicode="&#xe3;" horiz-adv-x="419" 
d="M409 455h-255v-455h-89v529h344v-74z" />
    <glyph glyph-name="adieresis" unicode="&#xe4;" horiz-adv-x="575" 
d="M69 74c22.667 43.333 38.667 89.334 48 138.001c7.33301 39.333 11 87.666 11 144.999v172h370v-455h59v-229h-81v155h-385v-155h-81v229h59zM409 74.001v381h-195v-96c0 -58.667 -3.83301 -110.167 -11.5 -154.5s-21.5 -87.833 -41.5 -130.5h248z" />
    <glyph glyph-name="aring" unicode="&#xe5;" 
d="M425 166l89.001 -0.000976562c-12.667 -51.333 -34.334 -91.666 -65.001 -120.999c-42 -40 -99.667 -60 -173 -60c-72.667 0 -130 24.667 -172 74s-63 113 -63 191c0 88 20 157.667 60 209c44 56.667 108.333 85 193 85c74 0 130.333 -27.5 169 -82.5
s58 -130.5 58 -226.5h-385c0 -55.333 13 -98 39 -128s64 -45 114 -45c38.667 0 71.667 12.333 99 37c24.667 22 37 44.333 37 67zM136.001 305.999h294c0 46 -11 82.667 -33 110c-25.333 32 -64 48 -116 48c-40 0 -74.167 -15.833 -102.5 -47.5s-42.5 -68.5 -42.5 -110.5z
" />
    <glyph glyph-name="ae" unicode="&#xe6;" horiz-adv-x="734" 
d="M407 529h-85v-234l-197 234h-113l205 -233l-214 -296h107l172 237l40 -47v-190h85v190l45 47l168 -237h106l-214 296l206 233h-114l-197 -236v236z" />
    <glyph glyph-name="ccedilla" unicode="&#xe7;" horiz-adv-x="505" 
d="M262 238l-53 -0.000976562v70h48c37.333 0 63.666 6.66699 78.999 20s23 34 23 62c0 26.667 -10.667 46.167 -32 58.5s-46.666 18.5 -75.999 18.5c-37.333 0 -65.5 -7 -84.5 -21s-31.5 -36.667 -37.5 -68h-85c4.66699 42 21.667 78 51 108c38 38.667 90 58 156 58
c58.667 0 106.667 -14.5 144 -43.5s56 -64.833 56 -107.5c0 -32 -9.66699 -58.667 -29 -80c-16 -17.333 -37 -29.666 -63 -36.999c31.333 -10.667 55.333 -24.334 72 -41.001c24.667 -24.667 37 -57 37 -97c0 -47.333 -20.167 -84.666 -60.5 -111.999s-90.5 -41 -150.5 -41
c-80 0 -138.667 18.333 -176 55c-29.333 28.667 -47 70.667 -53 126h87c4 -37.333 16.333 -64 37 -80s54.334 -24 101.001 -24c36 0 64.667 6.66699 86 20c24.667 15.333 37 38 37 68c0 29.333 -10.333 51.333 -31 66s-48.334 22 -83.001 22z" />
    <glyph glyph-name="egrave" unicode="&#xe8;" 
d="M155 529v-396l261 396h93v-529h-89v396l-261 -396h-93v529h89z" />
    <glyph glyph-name="eacute" unicode="&#xe9;" horiz-adv-x="578" 
d="M158 529v-396l261 396h93v-529h-89v396l-261 -396h-93v529h89zM184 726h-50.001c0 -44 15 -78.667 45 -104c26.667 -22.667 63.334 -34 110.001 -34c58 0 99.667 18.333 125 55c16.667 24 25 51.667 25 83h-49c-10.667 -32.667 -25 -54.667 -43 -66
c-14.667 -9.33301 -34.667 -14 -60 -14c-32.667 0 -57.667 7.66699 -75 23c-14 12.667 -23.333 31.667 -28 57z" />
    <glyph glyph-name="ecircumflex" unicode="&#xea;" horiz-adv-x="505" 
d="M292 332l214 -332h-106l-171 270l-75 -70v-200h-86v529h86v-230l227 230h113z" />
    <glyph glyph-name="edieresis" unicode="&#xeb;" horiz-adv-x="572" 
d="M118 529l386.999 0.000976562v-529h-89v455h-209v-241c0 -76.667 -11.833 -132.834 -35.5 -168.501s-57.5 -53.5 -101.5 -53.5c-12.667 0 -22.667 0.5 -30 1.5s-16.333 3.16699 -27 6.5v69l36 -2c26.667 0 44.834 11 54.501 33s14.5 70 14.5 144v285z" />
    <glyph glyph-name="igrave" unicode="&#xec;" horiz-adv-x="712" 
d="M70 529v-529h87v307c0 27.333 -0.333008 49.5 -1 66.5s-2 32.833 -4 47.5h7l166 -421h64l166 421h7c-1.33301 -14.667 -2 -26.667 -2 -36c-2 -36.667 -3 -62.667 -3 -78v-307h87v529h-123l-163 -415l-163 415h-125z" />
    <glyph glyph-name="iacute" unicode="&#xed;" 
d="M405 316v213h89v-529h-89v242h-247v-242h-89v529h89v-213h247z" />
    <glyph glyph-name="icircumflex" unicode="&#xee;" 
d="M36 265c0 74.667 19.667 138 59 190c44.667 59.333 106.667 89 186 89s141.333 -29.333 186 -88c39.333 -51.333 59 -115 59 -191c0 -74.667 -19.667 -138 -59 -190c-44.667 -59.333 -106.667 -89 -186 -89s-141.333 29.333 -186 88c-39.333 51.333 -59 115 -59 191z
M127 265c0 -48.667 9.66699 -91 29 -127c27.333 -50 69 -75 125 -75s97.333 24.667 124 74c20 36.667 30 79.334 30 128.001s-9.66699 91 -29 127c-27.333 50 -69 75 -125 75s-97.333 -24.667 -124 -74c-20 -36.667 -30 -79.334 -30 -128.001z" />
    <glyph glyph-name="idieresis" unicode="&#xef;" 
d="M69 529h425v-529h-89v455h-247v-455h-89v529z" />
    <glyph glyph-name="eth" unicode="&#xf0;" 
d="M148 241c0 -63.333 16 -110.667 48 -142c25.333 -24.667 56 -37 92 -37c46.667 0 82.667 19.333 108 58c23.333 36 35 84.667 35 146c0 52.667 -7 94 -21 124c-22.667 49.333 -64 74 -124 74c-56.667 0 -95.667 -26.333 -117 -79c-14 -34.667 -21 -82.667 -21 -144z
M59 -209.001l-0.000976562 737.999h83v-75c24 28.667 41.667 47.334 53 56.001c30 22.667 65.667 34 107 34c68.667 0 122.667 -24.5 162 -73.5s59 -112.5 59 -190.5c0 -77.333 -16 -142 -48 -194c-41.333 -67.333 -102.666 -101 -183.999 -101
c-34 0 -62.833 6.83301 -86.5 20.5s-42.5 32.5 -56.5 56.5v-271h-89z" />
    <glyph glyph-name="ntilde" unicode="&#xf1;" horiz-adv-x="505" 
d="M482 351l-85.999 -0.000976562c-6 36.667 -19.167 64.667 -39.5 84s-48.833 29 -85.5 29c-50.667 0 -88.667 -21.333 -114 -64c-20.667 -34.667 -31 -79.667 -31 -135c0 -57.333 8.66699 -102.666 26 -135.999c23.333 -44.667 62.666 -67 117.999 -67
c30.667 0 57.5 10.833 80.5 32.5s38.167 52.5 45.5 92.5h86c-6 -53.333 -23.333 -97.333 -52 -132c-38.667 -46.667 -93 -70 -163 -70c-72.667 0 -130.167 24.667 -172.5 74s-63.5 113 -63.5 191c0 86.667 20.333 156 61 208c44.667 57.333 108.667 86 192 86
c64.667 0 115 -20.667 151 -62c31.333 -36 47 -79.667 47 -131z" />
    <glyph glyph-name="ograve" unicode="&#xf2;" horiz-adv-x="456" 
d="M442 455h-174v-455h-88v455h-174v74h436v-74z" />
    <glyph glyph-name="oacute" unicode="&#xf3;" horiz-adv-x="505" 
d="M396 529l98 0.000976562l-71 -201l-83 -225c-30 -80 -55.833 -145.167 -77.5 -195.5s-41.5 -82.833 -59.5 -97.5c-22 -17.333 -57.333 -26 -106 -26c-6.66699 0 -13.5 1 -20.5 3l-17.5 5v81c6.66699 -2.66699 14.5 -4.83398 23.5 -6.50098s19.167 -2.5 30.5 -2.5
c22 0 37.5 6.16699 46.5 18.5s24.833 46.833 47.5 103.5l-196 543h101l141 -431z" />
    <glyph glyph-name="ocircumflex" unicode="&#xf4;" horiz-adv-x="831" 
d="M460 -209l-85.001 0.00195312v271c-12.667 -20.667 -29.667 -38 -51 -52c-26 -16.667 -55 -25 -87 -25c-68 0 -118.667 26.667 -152 80c-30.667 48.667 -46 117.667 -46 207c0 78 17.667 142.833 53 194.5s82 77.5 140 77.5c36 0 67 -8.66699 93 -26
c17.333 -11.333 34 -28 50 -50v258h85v-259c14.667 21.333 30.334 37.666 47.001 48.999c26.667 18.667 57.667 28 93 28c58 0 104.667 -25.833 140 -77.5s53 -116.5 53 -194.5c0 -88.667 -15.333 -157.334 -46 -206.001c-34 -54 -84.667 -81 -152 -81
c-33.333 0 -61.333 7 -84 21c-18 11.333 -34.333 28 -49 50zM700.999 262.002c0 56.667 -10.001 104 -30.001 142c-22 42 -53 63 -93 63c-43.333 0 -74.666 -21.667 -93.999 -65c-16 -36 -24 -87.333 -24 -154c0 -68.667 13.333 -118.667 40 -150
c20.667 -24 46.667 -36 78 -36c82 0 123 66.667 123 200zM130.998 262.002c0 -133.333 40.333 -200 121 -200c32 0 58.333 11.333 79 34c29.333 32 44 81.667 44 149c0 66 -9 118 -27 156c-20.667 44 -52.667 66 -96 66c-40.667 0 -71.667 -21 -93 -63
c-18.667 -36.667 -28 -84 -28 -142z" />
    <glyph glyph-name="otilde" unicode="&#xf5;" horiz-adv-x="504" 
d="M309 272l185 -272h-113l-131 199l-127 -199h-112l185 272l-176 257h114l122 -186l122 186h109z" />
    <glyph glyph-name="odieresis" unicode="&#xf6;" horiz-adv-x="575" 
d="M157 74h248v455h89v-455h58v-229h-80v155h-404v529h89v-455z" />
    <glyph glyph-name="divide" unicode="&#xf7;" horiz-adv-x="551" 
d="M481 0l-89 -0.000976562v236c-54.667 -13.333 -110.334 -20 -167.001 -20c-46 0 -82.333 9.33301 -109 28c-33.333 23.333 -50 60 -50 110v175h89v-162c0 -27.333 8.83301 -46.666 26.5 -57.999s41.167 -17 70.5 -17c22.667 0 46.834 1.5 72.501 4.5
s48.167 7.5 67.5 13.5v219h89v-529z" />
    <glyph glyph-name="oslash" unicode="&#xf8;" horiz-adv-x="841" 
d="M778 529v-529h-713v529h89v-455h223v455h89v-455h223v455h89z" />
    <glyph glyph-name="ugrave" unicode="&#xf9;" horiz-adv-x="861" 
d="M376 529h89v-455h222v455h89v-455h59v-229h-81v155h-689v529h89v-455h222v455z" />
    <glyph glyph-name="uacute" unicode="&#xfa;" horiz-adv-x="576" 
d="M215 313l125 0.000976562c66 0 116.167 -14.667 150.5 -44s51.5 -68.333 51.5 -117c0 -44.667 -15 -80.334 -45 -107.001c-34 -30 -85 -45 -153 -45h-217v455h-127v74h215v-216zM215 240.001v-166.001h127c40.667 0 69 6.33301 85 19s24 34.334 24 65.001
c0 54.667 -36.333 82 -109 82h-127z" />
    <glyph glyph-name="ucircumflex" unicode="&#xfb;" horiz-adv-x="730" 
d="M667 529v-529h-89v529h89zM158 313l125 0.000976562c66.667 0 117 -14.667 151 -44s51 -68.333 51 -117c0 -44.667 -15 -80.334 -45 -107.001c-34 -30 -85 -45 -153 -45h-218v529h89v-216zM158 240.001v-166.001h126c40.667 0 69 6.33301 85 19s24 34.334 24 65.001
c0 54.667 -36.333 82 -109 82h-126z" />
    <glyph glyph-name="udieresis" unicode="&#xfc;" horiz-adv-x="514" 
d="M155 313l125 0.000976562c66 0 116.167 -14.667 150.5 -44s51.5 -68.333 51.5 -117c0 -44.667 -15 -80.334 -45 -107.001c-34 -30 -85 -45 -153 -45h-218v529h89v-216zM155 240.001v-166.001h126c40.667 0 69 6.33301 85 19s24 34.334 24 65.001
c0 54.667 -36.333 82 -109 82h-126z" />
    <glyph glyph-name="yacute" unicode="&#xfd;" horiz-adv-x="505" 
d="M385 308l-189.001 0.000976562v-70h189c0 -46.667 -11.667 -86.334 -35 -119.001c-27.333 -38 -63.666 -57 -108.999 -57c-68 0 -111.667 34.333 -131 103h-87c8.66699 -47.333 29.667 -87.333 63 -120c40.667 -40 93.334 -60 158.001 -60c72.667 0 130.167 25 172.5 75
s63.5 114.333 63.5 193c0 88 -19.667 157.333 -59 208c-42.667 55.333 -104.667 83 -186 83c-56.667 0 -105.334 -20.333 -146.001 -61c-37.333 -37.333 -58.333 -80.333 -63 -129h86c8 37.333 22 65 42 83s48.667 27 86 27c44.667 0 80.667 -16.333 108 -49
c24.667 -29.333 37 -65 37 -107z" />
    <glyph glyph-name="thorn" unicode="&#xfe;" horiz-adv-x="762" 
d="M155 313h105.001c8.66699 66.667 31 120.334 67 161.001c41.333 46.667 97 70 167 70c78.667 0 139 -29.333 181 -88c36 -50.667 54 -114.334 54 -191.001c0 -76 -18 -139.333 -54 -190c-42 -59.333 -102.333 -89 -181 -89c-74.667 0 -133.334 26 -176.001 78
c-38.667 47.333 -58 106 -58 176h-105v-240h-89v529h89v-216zM351.001 265c0 -52.667 7.66699 -94.999 23 -126.999c24 -50 64 -75 120 -75s95.667 24.667 119 74c16 33.333 24 76 24 128c0 49.333 -8.66699 91.666 -26 126.999c-24.667 50 -63.667 75 -117 75
c-56 0 -95.667 -24.667 -119 -74c-16 -33.333 -24 -76 -24 -128z" />
    <glyph glyph-name="ydieresis" unicode="&#xff;" horiz-adv-x="529" 
d="M369 0v223h-113l-125 -223h-101l131 226c-29.333 6 -55.333 20.667 -78 44c-27.333 28.667 -41 63.667 -41 105c0 49.333 17 87.333 51 114s80.667 40 140 40h225v-529h-89zM369 293v162h-139c-66 0 -99 -27 -99 -81s33 -81 99 -81h139z" />
    <glyph glyph-name="florin" unicode="&#x192;" horiz-adv-x="561" 
d="M505 730l-14.002 -79.002l-30 11.5c-10 3.66699 -19.333 5.5 -28 5.5c-18 0 -34.167 -7.5 -48.5 -22.5s-25.166 -40.167 -32.499 -75.5l-21 -104h115v-71h-128l-61 -330c-18 -98.667 -44.667 -170 -80 -214c-32.667 -40 -74.667 -60 -126 -60
c-16.667 0 -28.667 0.833008 -36 2.5s-16.333 4.83398 -27 9.50098l15 82c4.66699 -3.33301 12 -6.5 22 -9.5s19.667 -4.5 29 -4.5c30.667 0 54 15.667 70 47c12 23.333 24 66.333 36 129l65 348h-110v71h124l28 125c9.33301 40.667 27 75.334 53 104.001
c30.667 33.333 66.334 50 107.001 50c17.333 0 35.333 -2.33301 54 -7c6 -1.33301 14 -4 24 -8z" />
    <glyph glyph-name="circumflex" unicode="&#x2c6;" horiz-adv-x="337" 
d="M168 693l-67 -94h-79l100 143h93l100 -143h-80z" />
    <glyph glyph-name="tilde" unicode="&#x2dc;" horiz-adv-x="337" 
d="M290 730h51c-4 -32 -14.833 -58.5 -32.5 -79.5s-40.5 -31.5 -68.5 -31.5c-10 0 -33.833 6.16699 -71.5 18.5s-60.167 18.5 -67.5 18.5c-19.333 0 -33 -4 -41 -12c-5.33301 -5.33301 -10.333 -16 -15 -32h-49c4.66699 32.667 14.667 58 30 76
c18.667 21.333 43.667 32 75 32c20 0 46.167 -6.16699 78.5 -18.5s52.5 -18.5 60.5 -18.5c17.333 0 30 5.33301 38 16c5.33301 6.66699 9.33301 17 12 31z" />
    <glyph glyph-name="endash" unicode="&#x2013;" 
d="M562 316v-73h-562v73h562z" />
    <glyph glyph-name="emdash" unicode="&#x2014;" horiz-adv-x="1010" 
d="M1010 316v-73h-1010v73h1010z" />
    <glyph glyph-name="quoteleft" unicode="&#x2018;" horiz-adv-x="224" 
d="M171 582v-107.001h-106v99c0 42.667 7.33301 76.334 22 101.001c17.333 28.667 45.333 47.667 84 57v-47c-23.333 -3.33301 -39 -17 -47 -41c-4.66699 -14 -7 -34.667 -7 -62h54z" />
    <glyph glyph-name="quoteright" unicode="&#x2019;" horiz-adv-x="224" 
d="M53 618v107.001h106v-99c0 -42.667 -7.33301 -76.334 -22 -101.001c-17.333 -28.667 -45.333 -47.667 -84 -57v47c23.333 3.33301 39 17 47 41c4.66699 14 7 34.667 7 62h-54z" />
    <glyph glyph-name="quotesinglbase" unicode="&#x201a;" horiz-adv-x="224" 
d="M53 0v107.001h106v-99c0 -42.667 -7.33301 -76.334 -22 -101.001c-17.333 -28.667 -45.333 -47.667 -84 -57v47c23.333 3.33301 39 17 47 41c4.66699 14 7 34.667 7 62h-54z" />
    <glyph glyph-name="quotedblleft" unicode="&#x201c;" horiz-adv-x="337" 
d="M310 582l-0.000976562 -107h-105v99c0 42 7.83301 76.5 23.5 103.5s42.834 45.167 81.501 54.5v-47c-22.667 -3.33301 -38 -17 -46 -41c-4.66699 -14 -7 -34.667 -7 -62h53zM143.999 582v-107h-105v99c0 43.333 7 77 21 101c16.667 28.667 44.667 47.667 84 57v-47
c-23.333 -3.33301 -39 -17 -47 -41c-4.66699 -14 -7 -34.667 -7 -62h54z" />
    <glyph glyph-name="quotedblright" unicode="&#x201d;" horiz-adv-x="337" 
d="M27 618l0.000976562 107h105v-99c0 -42 -7.33301 -75.667 -22 -101c-16.667 -28.667 -44.334 -47.667 -83.001 -57v47c22.667 3.33301 38 17 46 41c4.66699 14 7 34.667 7 62h-53zM193.001 618v107h105v-99c0 -43.333 -7 -77 -21 -101
c-16.667 -28.667 -44.667 -47.667 -84 -57v47c23.333 3.33301 39 17 47 41c4.66699 14 7 34.667 7 62h-54z" />
    <glyph glyph-name="quotedblbase" unicode="&#x201e;" horiz-adv-x="337" 
d="M27 0l0.000976562 107h105v-99c0 -42 -7.33301 -75.667 -22 -101c-16.667 -28.667 -44.334 -47.667 -83.001 -57v47c22.667 3.33301 38 17 46 41c4.66699 14 7 34.667 7 62h-53zM193.001 0v107h105v-99c0 -43.333 -7 -77 -21 -101
c-16.667 -28.667 -44.667 -47.667 -84 -57v47c23.333 3.33301 39 17 47 41c4.66699 14 7 34.667 7 62h-54z" />
    <glyph glyph-name="dagger" unicode="&#x2020;" 
d="M329 436v-596h-94v596h-191v76h191v213h94v-213h190v-76h-190z" />
    <glyph glyph-name="daggerdbl" unicode="&#x2021;" 
d="M329 444v-324h190v-76h-190v-204h-94v204h-191v76h191v324h-191v76h191v205h94v-205h190v-76h-190z" />
    <glyph glyph-name="bullet" unicode="&#x2022;" horiz-adv-x="354" 
d="M337 363c0 -43.333 -15.668 -80.667 -47.001 -112s-69 -47 -113 -47s-81.5 15.5 -112.5 46.5s-46.5 68.5 -46.5 112.5s15.333 81.667 46 113s68.334 47 113.001 47c44 0 81.667 -15.667 113 -47s47 -69 47 -113z" />
    <glyph glyph-name="ellipsis" unicode="&#x2026;" horiz-adv-x="1010" 
d="M221 108v-108h-105v108h105zM558 108v-108h-106v108h106zM894 108v-108h-105v108h105z" />
    <glyph glyph-name="perthousand" unicode="&#x2030;" horiz-adv-x="1010" 
d="M7 544c0 44 15.333 81.333 46 112s68 46 112 46c43.333 0 80.333 -15.333 111 -46s46 -68 46 -112s-15 -81.333 -45 -112s-67.333 -46 -112 -46c-44 0 -81.333 15 -112 45s-46 67.667 -46 113zM71 544c0 -26 8.83301 -48.167 26.5 -66.5s40.167 -27.5 67.5 -27.5
c26 0 48.167 9.16699 66.5 27.5s27.5 40.5 27.5 66.5c0 25.333 -9.33301 47.333 -28 66s-40.667 28 -66 28c-26.667 0 -49 -9.33301 -67 -28s-27 -40.667 -27 -66zM322 150c0 44 15.333 81.333 46 112s68 46 112 46c43.333 0 80.333 -15.333 111 -46s46 -68 46 -112
c0 -43.333 -15 -80.333 -45 -111s-67.333 -46 -112 -46c-44 0 -81.333 15 -112 45s-46 67.333 -46 112zM386 150c0 -26 8.83301 -48.167 26.5 -66.5s40.167 -27.5 67.5 -27.5c25.333 0 47.333 9.33301 66 28s28 40.667 28 66c0 26 -9.16699 48.167 -27.5 66.5
s-40.5 27.5 -66.5 27.5c-26.667 0 -49 -9.33301 -67 -28s-27 -40.667 -27 -66zM689 150c0 44 15.333 81.333 46 112s67.667 46 111 46c44 0 81.333 -15.333 112 -46s46 -68 46 -112c0 -43.333 -15.333 -80.333 -46 -111s-68 -46 -112 -46c-43.333 0 -80.333 15 -111 45
s-46 67.333 -46 112zM752 150c0 -25.333 9 -47.333 27 -66s40.333 -28 67 -28c25.333 0 47.333 9.33301 66 28s28 40.667 28 66c0 26.667 -9 49 -27 67s-40.333 27 -67 27c-26 0 -48.167 -9.16699 -66.5 -27.5s-27.5 -40.5 -27.5 -66.5zM549 710l-401 -730h-55l401 730h55z
" />
    <glyph glyph-name="guilsinglleft" unicode="&#x2039;" horiz-adv-x="337" 
d="M248 198v-89l-159 125v92l159 125v-89l-106 -82z" />
    <glyph glyph-name="guilsinglright" unicode="&#x203a;" horiz-adv-x="337" 
d="M89 109v89l106 82l-106 82v89l159 -125v-92z" />
    <glyph glyph-name="trademark" unicode="&#x2122;" horiz-adv-x="1010" 
d="M563 725l119 -306l117 306h113v-416h-73v338l-133 -338h-50l-131 338l-2 -338h-73v416h113zM377 725v-61h-128v-355h-74v355h-128v61h330z" />
    <glyph glyph-name=".null" horiz-adv-x="0" 
 />
    <glyph glyph-name="nonmarkingreturn" horiz-adv-x="280" 
 />
    </font>
</defs>
</svg>
